<?xml version="1.0" standalone="no"?>
<!DOCTYPE svg PUBLIC "-//W3C//DTD SVG 1.1//EN" "http://www.w3.org/Graphics/SVG/1.1/DTD/svg11.dtd" >
<svg xmlns="http://www.w3.org/2000/svg">
<metadata></metadata>
<defs>
<font id="OldStandardTTItalic" horiz-adv-x="1187" >
<font-face units-per-em="2048" ascent="1561" descent="-487" />
<missing-glyph horiz-adv-x="573" />
<glyph horiz-adv-x="0" />
<glyph horiz-adv-x="2048" />
<glyph unicode="&#xd;" horiz-adv-x="2048" />
<glyph unicode=" "  horiz-adv-x="573" />
<glyph unicode="&#x09;" horiz-adv-x="573" />
<glyph unicode="&#xa0;" horiz-adv-x="573" />
<glyph unicode="!" horiz-adv-x="573" d="M115 102.5q0 55.5 35.5 91t91 35.5t91.5 -35.5t36 -91t-36 -91.5t-91.5 -36t-91 36t-35.5 91.5zM266 324l74 415q25 141 41 283t37 256q29 143 143 143q107 0 107 -143q0 -78 -92.5 -289t-116.5 -280l-144 -385h-49z" />
<glyph unicode="&#x22;" horiz-adv-x="806" d="M352 1065l41 299q16 131 103 131q49 0 49 -53q0 -25 -17 -68l-127 -309h-49zM667 1065l41 299q16 131 103 131q49 0 49 -53q0 -25 -17 -68l-127 -309h-49z" />
<glyph unicode="#" horiz-adv-x="1400" d="M115 401l22 82h248l193 439h-322l23 82h333l168 397h90l-170 -397h299l170 397h91l-170 -397h272l-23 -82h-282l-189 -439h346l-22 -82h-363l-170 -401h-90l170 401h-297l-172 -401h-90l172 401h-237zM475 483h303l189 439h-299z" />
<glyph unicode="$" d="M102 286q0 91 47.5 156.5t105.5 65.5q122 0 122 -96q0 -39 -29 -69t-84 -30q-63 0 -63 -84q0 -57 41 -105t112 -73l178 662l-55 30q-47 27 -75.5 53.5t-51 82t-22.5 135.5t34.5 153.5t93.5 122.5q121 99 269 131l37 140h65l-34 -129q14 2 46.5 2t65.5 -7l37 134h66 l-39 -146q113 -35 180.5 -115.5t67.5 -178t-49.5 -158t-131.5 -60.5q-35 0 -66.5 20.5t-31.5 62.5t26.5 70.5t71.5 38t68 24.5t22.5 61.5t-47.5 95.5t-129 74l-159 -592l67 -39q146 -75 176 -211q10 -45 10 -102q0 -152 -130 -275t-334 -156l-39 -139h-66l37 133 q-18 -2 -48 -2t-67 4l-37 -135h-65l41 150q-111 35 -172.5 122t-61.5 178zM416 37q37 -4 66.5 -4t45.5 2l160 588l-98 57zM442 1077q0 -119 82 -166l54 -30l127 471q-93 -23 -178 -90q-85 -66 -85 -185zM596 43q141 27 221 111t80 202q0 105 -37 150q-34 42 -69 59l-46 27z M635 848l98 -57l156 573q-45 4 -72 4t-43 -2z" />
<glyph unicode="%" horiz-adv-x="1761" d="M262 946q0 126 72 256q79 143 194 200q66 32 138 32t125 -50.5t67 -134.5q14 -31 70.5 -48t103.5 -17q115 0 237 63.5t201 151.5l66 84l49 -49l-1200 -1483l-49 49l983 1214l-10 5q-142 -84 -277 -84q-90 0 -168 36q-4 -161 -112 -309q-52 -71 -127.5 -118.5 t-163.5 -47.5t-143.5 69.5t-55.5 180.5zM410 946q0 -82 34.5 -125t79.5 -43q78 0 143.5 59.5t101.5 157t38 209.5q-41 29 -64.5 66t-23.5 65.5t12 40.5q-16 8 -39 8q-119 0 -200.5 -131t-81.5 -307zM1024 224q0 118 74.5 254.5t191.5 194.5q66 32 145.5 32t135 -70 t55.5 -180q0 -125 -72 -257q-77 -141 -194 -199q-66 -32 -145.5 -32t-135 69.5t-55.5 187.5zM1171 217q0 -82 35 -125t80 -43q119 0 201 131t82 307q0 82 -35 125t-80 43q-119 0 -201 -131t-82 -307z" />
<glyph unicode="&#x26;" horiz-adv-x="1515" d="M115 264q0 94 39 182.5t96 150.5t129 115q115 86 237 130l119 43q21 207 121 371q49 81 123 131.5t139.5 50.5t100 -19.5t51.5 -49.5q30 -55 30 -114t-22.5 -109t-54 -83t-76.5 -61q-70 -45 -148 -70l-120 -43v-543l358 475q90 117 180 117q66 0 98.5 -40t32.5 -88 t-22.5 -84t-71.5 -36q-65 0 -65 62q0 33 24.5 57.5t24.5 39.5t-11.5 25.5t-30.5 10.5t-38 -12.5t-33 -29t-43 -48.5l-401 -508v-51q0 -211 110 -211q45 0 104.5 47t112.5 116q104 132 152 226l37 -21q-24 -51 -71.5 -130t-84.5 -123t-80 -86q-93 -91 -190 -91 q-144 0 -196 117q-13 29 -23 67q-127 -134 -230 -167q-51 -17 -106 -17q-131 0 -216 78t-85 223zM311 254q0 -113 39 -171t111 -58q90 0 161 57q60 48 117 113q-8 25 -8 73v563l-74 -26q-164 -59 -255 -207.5t-91 -343.5zM879 934l100 37q79 23 139 70q109 84 109 210 q0 62 -30 93.5t-63 31.5t-65.5 -13t-67 -46t-61.5 -81q-61 -108 -61 -302z" />
<glyph unicode="'" horiz-adv-x="491" d="M352 1065l41 299q16 131 103 131q49 0 49 -53q0 -25 -17 -68l-127 -309h-49z" />
<glyph unicode="(" horiz-adv-x="757" d="M172 200q0 178 56.5 372t154.5 361q199 339 498 562l49 -49q-532 -434 -644 -998q-28 -138 -28 -272.5t49 -278t135 -253.5l-65 -50q-88 104 -146.5 266t-58.5 340z" />
<glyph unicode=")" horiz-adv-x="757" d="M-127 -356q531 433 645 998q27 137 27 271.5t-49.5 278t-135.5 254.5l66 49q88 -104 146.5 -266t58.5 -340t-56.5 -371.5t-154.5 -360.5q-200 -340 -498 -563z" />
<glyph unicode="*" d="M332 842q0 78 137 96q72 8 152 53q20 16 20 22.5t-20 22.5q-80 45 -152 54q-137 18 -137 96q0 31 20 51q20 25 56 25q55 0 114 -80q39 -51 115 -101q18 -12 29 -12q16 0 16 31q0 84 -27 149q-46 112 -6 160q23 25 57.5 25t56 -25t21.5 -59.5t-26.5 -100.5t-26.5 -149 q0 -31 17 -31q10 0 28 12q76 49 115 101q59 80 115 80q35 0 55 -25q20 -20 20 -51q0 -78 -137 -96q-91 -10 -162 -62q-10 -8 -10 -14q0 -8 21 -23q80 -45 151 -53q137 -18 137 -96q0 -31 -20 -51q-20 -25 -55 -25q-55 0 -115 80q-39 51 -115 100q-18 12 -31 12t-14 -30 q0 -84 27 -149.5t26.5 -100.5t-22 -60t-56 -24.5t-57.5 24.5q-20 25 -20 60t26.5 100.5t26.5 149.5q0 31 -16 30q-10 0 -57.5 -30.5t-86.5 -81.5q-59 -80 -114 -80q-35 0 -55.5 22.5t-20.5 53.5z" />
<glyph unicode="+" horiz-adv-x="1925" d="M115 500v82h819v819h90v-819h819v-82h-819v-819h-90v819h-819z" />
<glyph unicode="," horiz-adv-x="573" d="M45 -311q85 44 145 98q107 98 107 203q0 31 -17 46t-60.5 15t-70 32t-26.5 83t35 86t94 35t94 -53.5t35 -125t-24.5 -145.5t-60.5 -123t-83 -90q-76 -66 -152 -94z" />
<glyph unicode="-" horiz-adv-x="757" d="M115 401q0 72 36.5 122t102.5 50h360q31 0 44.5 13.5t13.5 44.5h37q0 -72 -37 -122t-103 -50h-360q-31 0 -44 -13.5t-13 -44.5h-37z" />
<glyph unicode="." horiz-adv-x="573" d="M123 102.5q0 55.5 36 91t91 35.5t91 -35.5t36 -91t-36 -91.5t-91 -36t-91 36t-36 91.5z" />
<glyph unicode="/" horiz-adv-x="901" d="M139 -406l611 1901h81l-610 -1901h-82z" />
<glyph unicode="0" d="M147 512q0 114 23 222t63.5 208t102 189.5t134.5 156.5q157 146 353 146q169 0 246 -158q74 -152 74 -399q0 -208 -86 -419q-83 -202 -237 -346q-156 -145 -353 -145q-169 0 -246 158q-74 152 -74 387zM311 293q0 -260 152 -260q141 0 234 137q85 126 147 317 q135 406 135 619q0 262 -152 262q-135 0 -231 -136q-85 -121 -150 -319q-135 -405 -135 -620z" />
<glyph unicode="1" d="M111 0l16 66h190q63 0 74 53l281 1034q-45 -32 -95 -45q-83 -23 -159 -51l-15 41q198 62 288 124q109 76 171 179h64l-348 -1282q-15 -53 40 -53h201l-16 -66h-692z" />
<glyph unicode="2" d="M66 53q0 131 73.5 243t216.5 185l279 164q131 76 229.5 203t98.5 258q0 191 -142 246q-43 16 -108.5 16t-142 -44t-124 -105.5t-47.5 -121t35 -59.5q12 0 37 13.5t57.5 13.5t55 -26.5t22.5 -73.5t-39 -86t-97 -39t-104.5 50t-46.5 135t38 163t99 131q131 115 285 115 q193 0 305.5 -101.5t112.5 -263.5q0 -196 -221 -355q-61 -43 -135 -79.5t-125 -61.5l-236 -108q-98 -47 -151 -94t-53 -78q57 0 194 -57.5t229.5 -57.5t158 36t91.5 103l39 95h39q-20 -120 -64 -208.5t-83 -133.5q-91 -105 -217 -105q-89 0 -152 53q-52 45 -95.5 103.5 t-75.5 85t-72 26.5t-59 -18t-19 -58.5t24.5 -62t24.5 -48.5q0 -62 -62 -62q-35 0 -54 19t-19 50z" />
<glyph unicode="3" d="M106 262q0 82 61.5 135.5t125 53.5t90.5 -34t27 -78t-29 -72.5t-64 -28.5t-51 10t-34 10q-39 0 -39 -47t24.5 -84t62.5 -57q75 -37 153 -37q155 0 255 143q57 82 86 195.5t29 170t-1 73t-8.5 45t-21.5 46.5q-36 44 -99 44t-105 -39t-87 -39q-71 0 -71 53q0 29 22.5 52.5 t59.5 23.5h210q59 0 118 44t103 118.5t44 214.5q0 84 -51.5 137t-156 53t-193.5 -51t-89 -123q0 -43 23 -43q6 0 21 6t30 6q72 0 72 -78q0 -45 -29 -76.5t-86 -31.5t-92 42t-35 119.5t59.5 150.5t147.5 109t184 36q164 0 267.5 -96.5t103.5 -243.5q0 -150 -158 -254 q-86 -58 -170 -70l-2 -14q67 -26 108 -75q78 -93 78 -211t-55 -218t-132 -160q-162 -125 -376 -125q-112 0 -218 70q-50 33 -81 88t-31 137z" />
<glyph unicode="4" d="M131 426l21 74l442 397q113 111 221.5 270.5t130.5 253.5h168q-16 -78 -81.5 -166t-194.5 -211l-600 -544h383l90 311q80 55 141 132t92 153h35l-164 -596h324l-21 -74h-321l-82 -307q-6 -29 3 -41t40 -12h190l-18 -66h-690l18 66h191q57 0 71 53l82 307h-471z" />
<glyph unicode="5" d="M127 233q0 82 47 136.5t108 54.5q128 0 128 -117q0 -41 -29 -69.5t-76 -28.5q-2 0 -19 1q-33 2 -50.5 -9.5t-18.5 -32.5q0 -59 63.5 -97t161.5 -38q201 0 316 225q39 78 64.5 186.5t25.5 194.5q0 217 -207 217q-68 0 -137.5 -49t-104.5 -158q-19 -63 -59 -63 q-59 0 -59 50t58 112.5t75 115.5l102 334q29 94 29 134.5t-6 66.5l49 35q133 -152 252 -152q190 0 305 152l31 -31q-33 -49 -57.5 -81t-70.5 -75q-96 -88 -247 -88q-111 0 -203 88l-115 -381l9 -6q29 25 86 45.5t98 20.5q172 0 268 -90.5t96 -253.5q0 -106 -47 -229.5 t-129 -208.5t-188.5 -131t-237 -46t-221 73.5t-90.5 192.5z" />
<glyph unicode="6" d="M184 434q0 147 53.5 332.5t153.5 346.5t233.5 241t246 80t182.5 -58.5t69.5 -149.5t-43.5 -144.5t-94 -53.5t-78.5 23.5t-27.5 63.5t18 67q26 37 76.5 48t50.5 48t-36 63.5t-120.5 26.5t-183 -88t-171.5 -241.5t-97 -327.5l14 -11q53 82 133 127t164 45q150 0 232.5 -95 t82.5 -242q0 -104 -46 -215t-119 -193q-160 -160 -361 -160q-145 0 -238.5 117t-93.5 350zM365 246q0 -94 46 -153.5t120.5 -59.5t137 47t105.5 127q90 166 90 375q0 94 -41 155.5t-123 61.5q-172 0 -284 -256q-51 -113 -51 -297z" />
<glyph unicode="7" d="M295 103.5q0 64.5 35 139t100 161.5q87 116 225 272l385 426l-8 8q-37 -25 -82 -25t-86 15.5t-63.5 32t-55.5 44.5t-50 41q-46 35 -104 35t-102.5 -47t-97.5 -151l-43 -84h-39l140 467h38q-14 -41 -7 -80t34 -39q106 98 203.5 98t187.5 -121q39 -53 73 -80.5t77 -27.5 t61.5 16.5t18.5 40t-25 35.5q-29 20 -29 52t17.5 47.5t38.5 15.5q76 0 75 -99q0 -74 -78 -168q-28 -34 -167 -196t-219 -268.5t-123.5 -211t-55.5 -174t-12 -148.5t-36 -122t-96 -43t-95 37t-35 101.5z" />
<glyph unicode="8" d="M139 338q0 96 51 182q77 128 216 178q40 15 108 27q-55 37 -96 117t-41 176q0 162 104 282q59 68 148.5 101t169.5 33q176 0 280.5 -84t104.5 -236q0 -86 -35 -169t-90 -125t-120 -72.5t-112 -36.5q86 -74 127 -149t41 -169q0 -188 -133 -307t-354 -119q-134 0 -245 88 q-54 43 -89 115t-35 168zM229 334q0 -143 76 -222t217 -79t233.5 75.5t92.5 182.5q0 150 -78 217l-215 180q-137 -29 -215 -100q-111 -111 -111 -254zM520 1080q0 -64 16.5 -101t57.5 -72l186 -164q129 18 211 115.5t82 225.5t-71.5 206t-210.5 78q-122 0 -203 -90 q-68 -77 -68 -198z" />
<glyph unicode="9" d="M180 175q0 91 43 144.5t94.5 53.5t79 -23.5t27.5 -63.5t-18 -66q-27 -38 -77 -49t-50 -48t35.5 -64t120.5 -26.5t183.5 88.5t171 241.5t97.5 327.5l-15 10q-53 -82 -133 -127t-164 -45q-150 0 -232.5 95.5t-82.5 242.5q0 104 46 215t120 193q160 160 360 160 q145 0 238.5 -117t93.5 -350q0 -147 -53 -332.5t-153.5 -346.5t-233.5 -241t-245.5 -80t-182.5 58.5t-70 149.5zM438 819q0 -94 41 -155.5t123 -61.5q172 0 285 256q51 113 51 297q0 94 -46 153.5t-121 59.5t-137.5 -47t-105.5 -127q-90 -166 -90 -375z" />
<glyph unicode=":" horiz-adv-x="573" d="M123 102.5q0 55.5 36 91t91 35.5t91 -35.5t36 -91t-36 -91.5t-91 -36t-91 36t-36 91.5zM311 807.5q0 55.5 36 91t91 35.5t91 -35.5t36 -91t-36 -91.5t-91 -36t-91 36t-36 91.5z" />
<glyph unicode="&#x3c;" horiz-adv-x="1925" d="M172 512v57l1548 832l41 -74l-1462 -786l1462 -787l-41 -73z" />
<glyph unicode="=" horiz-adv-x="1925" d="M115 303v82h1728v-82h-1728zM115 692v82h1728v-82h-1728z" />
<glyph unicode="&#x3e;" horiz-adv-x="1925" d="M164 -246l1462 787l-1462 786l41 74l1548 -832v-57l-1548 -831z" />
<glyph unicode="?" horiz-adv-x="892" d="M229 102.5q0 55.5 36 91t91.5 35.5t91 -35.5t35.5 -91t-35.5 -91.5t-91 -36t-91.5 36t-36 91.5zM279 492q0 78 47 143t120 110l254 152q160 86 160 217q0 109 -51 177.5t-145 68.5q-170 0 -246 -88q-37 -41 -37 -81t29 -52t45 -30t16 -49.5t-21.5 -56t-63.5 -24.5t-67 29 q-37 37 -36.5 110.5t64 147t155.5 114.5t180 41q160 0 243 -92t83 -235q0 -90 -63.5 -171t-162.5 -128l-272 -131q-68 -37 -106.5 -84.5t-38.5 -98.5t30.5 -77.5t75.5 -26.5q84 0 124 47t40 98.5t-21 73.5l25 18q37 -37 37 -108.5t-61.5 -131t-145.5 -59.5t-137 49.5 t-53 127.5z" />
<glyph unicode="@" horiz-adv-x="1679" d="M197 717q0 217 100 394t276.5 280.5t364.5 103.5t324.5 -57.5t223.5 -155.5q181 -204 181 -510q0 -219 -163 -385q-52 -53 -131 -86t-165 -33t-139 42t-63 112l-11 2q-24 -39 -71 -80q-87 -76 -176.5 -76t-158.5 66.5t-69 191.5t35 252t112.5 219t170 140.5t163 48.5 t112.5 -39t50 -74h11l22 88h147l-172 -635q-23 -100 -1 -154.5t71 -54.5t96 17.5t81 46.5t60.5 70t43 86t28.5 94q19 83 19 182q0 293 -171 459t-458 166q-176 0 -324.5 -98.5t-234.5 -270.5t-86 -383q0 -309 176 -487.5t487 -178.5q180 0 361 119l33 -47 q-178 -129 -410.5 -129t-400.5 96.5t-256 268.5t-88 389zM659 481q0 -87 31 -125.5t68 -38.5q102 0 186 110t125 259l47 174q22 74 -5 178q-11 43 -36.5 71t-56.5 28q-82 0 -146.5 -56.5t-114 -163t-74 -228t-24.5 -208.5z" />
<glyph unicode="A" horiz-adv-x="1490" d="M-90 0l16 66h76q84 0 149.5 43t104.5 104l842 1245h49v-1304q4 -51 28.5 -69.5t69.5 -18.5h115l-17 -66h-606l17 66h127q41 0 63.5 18t22.5 76v340h-428l-140 -205q-70 -98 -69 -160q0 -69 80 -69h2h112l-16 -66h-598zM590 573h377v551z" />
<glyph unicode="B" horiz-adv-x="1413" d="M-20 0l16 66h156q53 0 69 55l330 1216q4 13 4 23q0 32 -43 33h-156l17 65h712q207 0 307 -139q54 -74 54 -160t-31 -145.5t-78 -100.5t-109 -71q-112 -55 -235 -72l-2 -4q135 -6 231.5 -93t96.5 -222q0 -82 -35 -156t-94.5 -126t-133.5 -91q-150 -78 -311 -78h-765z M408 121q-3 -12 -3 -21q0 -34 41 -34h334q115 0 201 82q75 73 107 188q14 53 14 104q0 137 -61.5 219t-182.5 82h-283zM594 807h274q243 0 334 165q47 84 47 177q0 244 -227 244h-215q-55 0 -70 -56z" />
<glyph unicode="C" horiz-adv-x="1372" d="M188 528q0 127 43 272.5t121 268.5t175.5 219t213 151.5t239.5 55.5t218 -94l37 -37q35 -35 60.5 -35t46.5 31q34 49 44 119h48l-131 -627h-48q2 41 2 121t-19 182t-69 170q-77 105 -203 105h-2q-124 0 -222 -75t-182 -229q-175 -326 -175 -725q0 -265 125 -337 q60 -35 161 -35t211 67q215 133 308 400l63 -23q-89 -264 -285 -405q-146 -105 -345 -105q-129 0 -238 82q-197 149 -197 483z" />
<glyph unicode="D" horiz-adv-x="1536" d="M-20 0l16 66h156q53 0 69 55l330 1216q4 13 4 23q0 32 -43 33h-156l19 65h657q213 0 334 -147.5t121 -382.5q0 -162 -59.5 -328t-165.5 -297q-244 -303 -578 -303h-704zM408 121q-3 -12 -3 -21q0 -34 41 -34h259q266 0 436 303q68 119 108.5 293t40.5 307t-14 195.5 t-49 115.5q-75 113 -240 113h-180q-55 0 -70 -56z" />
<glyph unicode="E" horiz-adv-x="1433" d="M-20 0l16 66h156q53 0 69 55l330 1216q4 13 4 23q0 32 -43 33h-156l17 65h1130l-94 -467h-51q6 43 6 115t-14.5 132t-45.5 93q-57 62 -161 62h-336q-55 0 -70 -56l-147 -546h221q153 0 215 182q12 35 17.5 54.5t15.5 53.5h51l-180 -671h-51q20 90 20 158q0 149 -123 149 h-207l-161 -596q-3 -12 -3 -21q0 -34 41 -34h381q53 0 125 26.5t129 81.5t111.5 149.5t81.5 159.5l24 66h50l-172 -549h-1196z" />
<glyph unicode="F" horiz-adv-x="1392" d="M-20 0l16 66h156q53 0 69 55l330 1216q4 13 4 23q0 32 -43 33h-156l17 65h1130l-94 -467h-51q6 43 6 115t-14.5 132t-45.5 93q-57 62 -161 62h-336q-55 0 -70 -56l-147 -546h219q153 0 215 182q24 71 33 108h51l-180 -671h-51q20 90 20 158q0 149 -123 149h-205 l-161 -596q-3 -12 -3 -21q0 -34 41 -34h230l-17 -66h-679z" />
<glyph unicode="G" horiz-adv-x="1515" d="M188 509q0 243 112 468.5t293.5 371.5t360.5 146t303 -111q37 -33 53.5 -44t35.5 -11q63 0 90 150h47l-131 -627h-47q2 39 2 129q0 242 -88 344q-47 55 -117 80t-139 25q-123 0 -221.5 -74t-181.5 -230q-175 -327 -175 -725q0 -270 124 -341q56 -31 134 -31t151.5 41 t127.5 104q116 135 145 285l23 108q2 8 2 23q0 33 -43 33h-205l16 65h635l-16 -65h-131q-57 0 -72 -56l-125 -596h-51v144q0 84 -30 84t-77 -56q-170 -180 -362 -180t-317.5 151.5t-125.5 394.5z" />
<glyph unicode="H" horiz-adv-x="1638" d="M-20 0l16 66h156q53 0 69 55l330 1216q3 11 3 21q0 35 -42 35h-156l17 65h606l-16 -65h-156q-53 0 -70 -56l-149 -546h633l149 546q3 11 3 21q0 35 -42 35h-155l16 65h606l-16 -65h-156q-53 0 -70 -56l-329 -1216q-3 -11 -3 -21q0 -34 42 -34h155l-16 -66h-606l16 66h156 q53 0 69 55l162 596h-633l-161 -596q-3 -12 -3 -21q0 -34 41 -34h156l-16 -66h-606z" />
<glyph unicode="I" horiz-adv-x="819" d="M-20 0l16 66h156q53 0 69 55l330 1216q4 13 4 23q0 32 -43 33h-156l17 65h606l-16 -65h-156q-55 0 -70 -56l-329 -1216q-3 -12 -3 -21q0 -34 41 -34h156l-16 -66h-606z" />
<glyph unicode="J" horiz-adv-x="1105" d="M29 216.5q0 106.5 53 166t118.5 59.5t102.5 -32.5t37 -88.5t-35 -95.5t-100 -39.5q-41 0 -41 -47q0 -110 155 -110q100 0 175 74.5t104 181.5l285 1052q4 16 4 25q0 31 -43 31h-230l17 65h680l-17 -65h-155q-55 0 -70 -56l-260 -958q-51 -190 -194.5 -303t-311.5 -113 q-127 0 -200.5 73.5t-73.5 180z" />
<glyph unicode="K" horiz-adv-x="1548" d="M-20 0l16 66h156q53 0 69 55l330 1216q4 13 4 23q0 32 -43 33h-156l17 65h606l-16 -65h-156q-55 0 -70 -56l-164 -608l611 459q68 51 97.5 83t29.5 68q0 53 -111 54h-49l16 65h562l-17 -65q-66 0 -133.5 -25t-163.5 -94l-497 -369l249 -749q20 -51 49 -70.5t95 -19.5h86 l-17 -66h-598l17 66h106q37 0 59 22q13 13 14 36q0 16 -7 36l-203 633l-221 -164l-139 -508q-3 -12 -3 -21q0 -34 41 -34h156l-16 -66h-606z" />
<glyph unicode="L" horiz-adv-x="1392" d="M-20 0l16 66h156q53 0 69 55l330 1216q4 13 4 23q0 32 -43 33h-156l19 65h604l-16 -65h-156q-55 0 -70 -56l-329 -1216q-3 -12 -3 -21q0 -34 41 -34h381q53 0 125 26.5t129 81.5t111.5 149.5t81.5 159.5l24 66h50l-172 -549h-1196z" />
<glyph unicode="M" horiz-adv-x="1830" d="M-20 0l16 66h98q66 0 115 54t72 138l292 1079q4 13 4 22q0 33 -42 34h-179l17 65h520v-1136l623 1136h475l-17 -65h-155q-55 0 -70 -56l-330 -1216q-3 -11 -3 -20q0 -35 46 -35h156l-16 -66h-611l17 66h155q53 0 70 55l344 1272h-31l-782 -1418h-51v1418h-41l-312 -1135 q-12 -45 -12 -86q0 -106 103 -106h98l-17 -66h-552z" />
<glyph unicode="N" horiz-adv-x="1617" d="M-20 0l16 66h98q66 0 115 55t72 137l292 1079q3 12 3 22q0 34 -41 34h-179l17 65h372l429 -1194l256 936q14 49 14 88q0 104 -105 105h-98l16 65h553l-16 -65h-98q-57 0 -110.5 -51.5t-76.5 -141.5l-335 -1237h-82l-453 1272h-10l-269 -977q-12 -45 -12 -88 q0 -104 103 -104h98l-17 -66h-552z" />
<glyph unicode="O" horiz-adv-x="1454" d="M188 514.5q0 153.5 45.5 307t123 273t176 211t213 140.5t235.5 49t221.5 -76t151.5 -200.5t51 -278.5t-45 -307.5t-123 -272t-176 -209t-213 -139.5t-235.5 -49t-221 76t-152 199t-51.5 276.5zM385 393q0 -180 65.5 -272t188.5 -92q74 0 143.5 31.5t118.5 79.5t94 116 q70 105 123 252q90 254 90 557q0 180 -65.5 272.5t-188.5 92.5q-74 0 -143.5 -32t-118.5 -80t-94 -116q-63 -95 -123 -252q-90 -254 -90 -557z" />
<glyph unicode="P" horiz-adv-x="1339" d="M-20 0l16 66h156q53 0 69 55l330 1216q5 15 5 25q0 31 -44 31h-156l19 65h698q152 0 246 -85t94 -238q0 -90 -43 -174t-119.5 -147.5t-192.5 -102.5t-251 -39h-250l-149 -551q-6 -33 2 -44t36 -11h230l-17 -66h-679zM575 737h275q80 0 155.5 39t120.5 102q91 129 91 293 q0 111 -54.5 166.5t-134.5 55.5h-221q-55 0 -70 -56z" />
<glyph unicode="Q" horiz-adv-x="1454" d="M188 514.5q0 153.5 45.5 307t123 273t176 211t213 140.5t235.5 49t221.5 -76t151.5 -200.5t51 -272t-37 -285t-95.5 -242t-132.5 -190.5q-136 -156 -296 -219v-137q0 -94 46 -129q19 -14 46 -14q117 0 186 250l49 -15q-68 -287 -239 -333q-31 -9 -64 -9q-90 0 -147 48 t-57 143q0 37 14 104l12 51q-31 -6 -67 -6q-131 0 -231.5 76t-152 199t-51.5 276.5zM385 378q0 -214 107 -300h8q-27 37 -27 90q0 109 54.5 158t132 49t124.5 -76t58 -207q174 125 270 390.5t96 582.5q0 180 -65.5 272.5t-188.5 92.5t-231.5 -87.5t-181 -231.5 t-114.5 -331.5t-42 -401.5zM530 170q0 -72 30 -106.5t67 -34.5t78 8l16 76q6 25 6 53.5t-3 50t-11 47.5q-17 53 -73 53t-83 -37.5t-27 -109.5z" />
<glyph unicode="R" horiz-adv-x="1474" d="M-20 0l16 66h156q53 0 69 55l330 1216q6 31 -2 43.5t-37 12.5h-156l17 65h637q174 0 270 -84t96 -248q0 -131 -118.5 -236.5t-274.5 -133.5l-2 -8q186 -90 186 -297q0 -49 -22.5 -158t-22.5 -146q0 -65 58 -65q123 0 190 250l51 -15q-37 -125 -67 -182 q-84 -160 -236 -160q-82 0 -135 43t-53 133.5t37 231.5t37 202.5t-43 102.5t-113 41h-277l-163 -608q-6 -31 2 -43t36 -12h205l-16 -66h-655zM590 795h250q156 0 248 100t92 281q0 217 -209 217h-164q-55 0 -70 -56z" />
<glyph unicode="S" horiz-adv-x="1269" d="M70 -20l163 647h48q-10 -56 -10 -111q0 -91 28 -179q45 -140 141.5 -224t212.5 -84q174 0 263.5 71.5t89.5 210.5q0 82 -42 134.5t-124 103.5l-238 145q-127 76 -183.5 156t-56.5 203t34 205.5t96 133.5q122 103 319 103q74 0 146.5 -39t112.5 -76t69 -37t57.5 45.5 t42.5 90.5h47l-119 -533h-47q1 13 1 26q-1 87 -35 183q-40 111 -118.5 193t-166.5 82t-151.5 -25t-100.5 -63q-76 -80 -76 -185q0 -142 151 -233q23 -13 58 -33l192 -113q173 -104 218 -186q45 -80 45 -186q0 -205 -132.5 -324t-367.5 -119q-170 0 -315 113q-23 18 -50.5 46 t-49.5 28t-46 -37q-34 -52 -59 -133h-47z" />
<glyph unicode="T" horiz-adv-x="1413" d="M217 0l16 66h205q53 0 68 55l330 1216q4 13 4 23q0 33 -41 33h-68q-120 0 -235 -109q-59 -57 -111.5 -152.5t-74 -154.5t-21.5 -68h-51l163 549h1123l-129 -549h-52q25 102 25 190.5t-14.5 137.5t-35 77.5t-48.5 47.5q-49 31 -107 31h-67q-63 0 -74 -56l-330 -1216 q-6 -29 2 -42t35 -13h205l-16 -66h-701z" />
<glyph unicode="U" horiz-adv-x="1605" d="M266 343.5q0 65.5 19 143.5l229 850q6 29 -2 42.5t-37 13.5h-156l17 65h606l-16 -65h-156q-55 0 -70 -56l-243 -905q-18 -78 -19 -117q0 -135 88 -210.5t230 -75.5q266 0 394 239q34 64 54 138l219 798q11 47 11 83q0 106 -103 106h-98l16 65h553l-16 -65h-98 q-61 0 -112.5 -54.5t-74.5 -138.5l-213 -774q-90 -340 -330 -428q-96 -35 -217 -35t-213 32t-148 86t-85 125.5t-29 137z" />
<glyph unicode="V" horiz-adv-x="1540" d="M287 1393l16 65h623l-17 -65h-143q-47 0 -62.5 -25t-15.5 -72v-1011l533 813q86 131 86 209q0 37 -23.5 61.5t-66.5 24.5h-91l17 65h606l-16 -65h-80q-76 0 -143.5 -45t-102.5 -105l-848 -1280h-51v1340q-6 53 -29.5 71.5t-68.5 18.5h-123z" />
<glyph unicode="W" horiz-adv-x="2207" d="M287 1393l16 65h606l-16 -65h-139q-45 0 -59.5 -23.5t-14.5 -73.5v-999l500 801q63 96 63 205q0 51 -25.5 70.5t-70.5 19.5h-107l17 65h606l-16 -65h-117q-51 0 -79 -35t-28 -94v-945l488 768q78 121 78 216q0 31 -25 60.5t-57 29.5h-113l16 65h607l-17 -65h-90 q-119 0 -211 -154l-805 -1276h-51v1096l-692 -1096h-51v1340q-6 53 -28.5 71.5t-68.5 18.5h-116z" />
<glyph unicode="X" horiz-adv-x="1720" d="M20 0l19 66h88q86 0 151.5 40.5t133.5 114.5l444 486l-264 583q-34 81 -86 96q-21 7 -55 7h-140l17 65h639l-17 -65h-92q-34 0 -60 -31q-15 -18 -15 -40q0 -15 8 -32l198 -436l309 338q41 45 41 115q0 86 -104 86h-76l17 65h639l-17 -65h-74q-147 0 -245 -107l-457 -506 l293 -641q20 -45 45.5 -59t71.5 -14h124l-16 -66h-655l16 66h131q46 0 68 26q12 14 11 34q0 17 -9 38l-213 469l-314 -346q-33 -37 -45 -65.5t-12 -69.5q0 -86 107 -86h69l-18 -66h-656z" />
<glyph unicode="Y" horiz-adv-x="1474" d="M217 0l16 66h205q53 0 68 53l143 532l-162 652q-16 51 -38.5 70.5t-63.5 19.5h-152l17 65h647l-16 -65h-121q-51 0 -76 -31q-16 -19 -16 -40q0 -13 6 -26l135 -569l352 406q31 37 46.5 54t36 56t20.5 70q0 80 -99 80h-88l17 65h606l-17 -65h-96q-117 0 -244 -150 l-501 -569l-150 -555q-4 -12 -4 -22q0 -31 41 -31h205l-16 -66h-701z" />
<glyph unicode="Z" horiz-adv-x="1392" d="M74 0l16 63l1040 1330h-368q-90 0 -164 -37t-141.5 -106.5t-105.5 -133.5q-62 -103 -62 -133h-51l172 475h966l-16 -65l-1036 -1327h454q147 0 258 96q63 55 122 151.5t87 165.5l27 70h51l-176 -549h-1073z" />
<glyph unicode="[" horiz-adv-x="778" d="M49 -406l508 1864h430l-16 -61h-246q-25 -4 -35 -10.5t-18 -30.5l-445 -1635q-14 -56 29 -65h240l-17 -62h-430z" />
<glyph unicode="\" horiz-adv-x="901" d="M147 1495h82l611 -1901h-82z" />
<glyph unicode="]" horiz-adv-x="778" d="M-184 -406l16 62h246q25 4 35 10t18 31l444 1634q14 58 -28 66h-240l17 61h430l-508 -1864h-430z" />
<glyph unicode="^" d="M180 688l467 746l467 -746h-98l-369 586l-368 -586h-99z" />
<glyph unicode="_" horiz-adv-x="1064" d="M-84 -324l21 82h1064l-20 -82h-1065z" />
<glyph unicode="`" horiz-adv-x="901" d="M438 1303q0 81 74 81q33 0 50.5 -18t31.5 -61l82 -244l-35 -21l-174 199q-29 31 -29 64z" />
<glyph unicode="a" horiz-adv-x="1097" d="M86 255q0 126 37 242.5t96.5 209t154.5 160t176 67.5q161 0 206 -180l8 -4l45 159h135l-174 -645q-29 -115 -29 -167t37 -52q57 0 116.5 91t106.5 237l41 -13q-48 -146 -102.5 -230.5t-101.5 -119.5t-97 -35q-119 0 -118 209l2 56l-7 4q-29 -70 -90 -140 q-111 -129 -216.5 -129t-165.5 77t-60 203zM233 199q0 -174 95 -174q74 0 145.5 75.5t120.5 187.5q111 255 111 408q0 90 -37 139.5t-101 49.5q-87 0 -179 -153q-79 -133 -117 -291t-38 -242z" />
<glyph unicode="b" horiz-adv-x="983" d="M139 279q0 57 13 100l270 985q3 11 3 19q0 26 -34 26h-182l14 49h363l-201 -735l10 -8q55 96 133 157.5t148.5 61.5t115 -26.5t70.5 -69.5q51 -87 51 -208.5t-70.5 -277t-145 -234t-146.5 -111t-169 -32.5t-170 82.5t-73 221.5zM283 217q0 -98 29 -143q31 -49 102 -49 q96 0 185 145q167 272 167 545q0 59 -23.5 114.5t-66.5 55.5q-70 0 -143.5 -68.5t-135.5 -189.5q-114 -234 -114 -410z" />
<glyph unicode="c" horiz-adv-x="868" d="M106 313q0 282 181 467q72 76 144.5 115t136 39t96 -10.5t61.5 -33.5q66 -51 66 -161q0 -61 -35 -102t-78 -41t-63.5 24.5t-20.5 53.5q0 57 65 106q23 18 23 45.5t-22.5 48.5t-73.5 21q-160 0 -279 -357q-23 -66 -38 -168t-15 -175.5t41 -116.5t96 -43t108.5 26.5 t86 62.5t62.5 82q36 56 63 121l43 -14q-49 -139 -149.5 -233.5t-223.5 -94.5t-199 102t-76 236z" />
<glyph unicode="d" horiz-adv-x="1085" d="M86 254q0 125 46 244.5t106.5 216t154.5 158t171 61.5t126 -47t66 -133l8 -4l166 614q1 7 1 13q0 32 -34 32h-180l14 49h363l-324 -1194q-29 -115 -29 -167t37 -52q57 0 116.5 92t106.5 236l41 -13q-137 -385 -301 -385q-119 0 -118 209l2 56l-7 4q-29 -70 -90 -140 q-111 -129 -216.5 -129t-165.5 77t-60 202zM233 199q0 -174 95 -174q74 0 145.5 75.5t120.5 187.5q111 255 111 408q0 90 -37 139.5t-101 49.5q-87 0 -179 -153q-79 -133 -117 -291t-38 -242z" />
<glyph unicode="e" horiz-adv-x="839" d="M106 313q0 282 181 467q147 154 307 154q82 0 134 -41t52 -131q0 -160 -207 -256q-106 -51 -290 -66q-29 -115 -29 -222t41 -150t96 -43t108.5 26.5t86 62.5t62.5 82q36 56 63 121l43 -14q-49 -139 -149.5 -233.5t-223.5 -94.5t-199 102t-76 236zM295 492q150 10 227 45 q160 73 160 237q0 57 -23.5 84t-62.5 27q-84 0 -155.5 -76t-100.5 -156.5t-45 -160.5z" />
<glyph unicode="f" horiz-adv-x="655" d="M-86 -487l369 1339h-211l12 57h213l25 80q40 133 100 232q152 254 362 254q72 0 119 -43t47 -101.5t-30.5 -94.5t-67.5 -36q-74 0 -74 68q0 41 33 65q33 16 33 45q0 47 -58 47q-123 0 -196 -106q-65 -93 -117 -283l-37 -127h230l-13 -57h-231l-369 -1339h-139z" />
<glyph unicode="g" horiz-adv-x="983" d="M-35 -307q0 57 34 90t75 33t62.5 -24.5t21.5 -66.5t-39 -73q-18 -16 -19 -45q0 -66 79 -66t130 24.5t103 92.5q84 113 146.5 336t66.5 246l-7 4q-29 -70 -90 -140q-111 -129 -216.5 -129t-165.5 77t-60 202t46 244.5t106.5 216t154.5 158t171 61.5t126 -47t66 -133l8 -4 l45 159h135l-252 -923q-27 -96 -84 -204t-126 -171q-129 -119 -277 -119q-109 0 -174.5 53.5t-65.5 147.5zM233 199q0 -174 95 -174q74 0 145.5 75.5t120.5 187.5q111 255 111 408q0 90 -37 139.5t-101 49.5q-87 0 -179 -153q-79 -133 -117 -291t-38 -242z" />
<glyph unicode="h" horiz-adv-x="1048" d="M49 0l373 1364q8 25 0 35t-33 10h-180l14 49h363l-271 -981l9 -6q8 12 34.5 64.5t45 85t51 85t63.5 87t68 70.5q73 71 144 71q144 0 144 -197q0 -45 -13 -108.5t-27 -100.5l-132 -305q-33 -71 -33 -127q0 -59 48 -59q97 0 201 237q22 48 40 99l41 -13 q-137 -385 -305 -385q-55 0 -93 49.5t-38 147.5q0 104 41 209l131 305q33 72 33 130q0 57 -43 56h-2q-125 0 -260 -231q-166 -277 -238 -506l-41 -135h-135z" />
<glyph unicode="i" horiz-adv-x="684" d="M74 549q57 164 136 274.5t171 110.5q53 0 91 -51.5t38 -120.5q0 -126 -41 -234l-131 -305q-33 -72 -33 -129t47 -57q117 0 242 336l41 -13q-82 -230 -181 -326q-61 -59 -120 -59t-97 49.5t-38 147.5q0 110 41 209l131 305q33 71 33 128q0 58 -44 58h-2q-120 0 -243 -335z M442 1307q0 45 31 75.5t76 30.5t75.5 -30.5t30.5 -75.5t-30.5 -76t-75.5 -31t-76 31t-31 76z" />
<glyph unicode="j" horiz-adv-x="667" d="M-199 -347.5q0 70.5 38 111.5t80 41t62.5 -21.5t20.5 -65t-40 -68t-40 -51.5q0 -57 62 -57q0 -1 1 -1q61 0 111 45q51 45 82 154q6 25 24.5 105.5t26.5 111.5q209 767 213 794t4 51q0 62 -45 62t-94 -57q-88 -102 -151 -287l-41 12q27 88 75 177.5t82 130.5q80 94 170 94 q104 0 126 -106q5 -23 5 -64t-22 -137l-197 -721q-49 -166 -145 -282q-108 -132 -236 -132q-61 0 -116.5 45t-55.5 115.5zM492 1307q0 45 30.5 75.5t75.5 30.5t76 -30.5t31 -75.5t-31 -76t-76 -31t-75.5 31t-30.5 76z" />
<glyph unicode="k" horiz-adv-x="1003" d="M49 0l373 1364q8 25 0 35t-33 10h-180l14 49h363l-258 -946h129q94 0 176 264q48 158 174 158q29 0 55.5 -14.5t49 -45t22.5 -88t-28.5 -92.5t-66 -35t-59.5 18.5t-22 49.5t16 55.5t17 36.5q0 33 -34 33t-50.5 -20.5t-36 -84t-60.5 -149.5t-80 -100l-2 -11 q53 -4 94.5 -46t41.5 -100t-20.5 -133t-20.5 -99q0 -62 43 -62q29 0 59.5 29.5t41.5 47t21.5 33t21.5 38t18.5 37t17.5 39t14 34.5t13.5 37t11.5 31l41 -13q-133 -385 -295 -385q-61 0 -104.5 39t-43.5 108.5t24.5 143.5t24.5 113t-18 61.5t-76 22.5h-123l-131 -463h-135z " />
<glyph unicode="l" horiz-adv-x="593" d="M111 184q0 41 20 123l291 1057q8 25 0 35t-33 10h-180l14 49h359l-320 -1175q-33 -131 -33 -184.5t39 -53.5t82 51q80 94 139 277l41 -13q-92 -272 -214 -356q-42 -29 -87 -29q-118 0 -118 209z" />
<glyph unicode="m" horiz-adv-x="1650" d="M74 549q135 385 299 385q121 0 121 -211q0 -35 -18.5 -121t-37.5 -125l8 -6q8 12 28 51t33 63.5t36.5 65.5t43 70t44 63.5t47 59t46.5 46.5q46 44 93 44q158 0 158 -195q0 -74 -55 -262l6 -6q8 12 34.5 64.5t45 85t51.5 85t63.5 87t67.5 70.5q73 71 144 71 q145 0 145 -197q0 -45 -13.5 -108.5t-27.5 -100.5l-131 -305q-33 -72 -33 -129t47 -57q117 0 242 336l41 -13q-82 -230 -182 -326q-60 -59 -119.5 -59t-97.5 49.5t-38 147.5q0 104 41 209l131 305q33 72 33 130q0 57 -43 56h-2q-125 0 -260 -231q-166 -277 -238 -506 l-41 -135h-135l170 633q2 8 9.5 32.5t12.5 42.5q13 45 13 85q0 79 -63 79h-2q-53 0 -151.5 -147t-178.5 -317t-113 -273l-41 -135h-135l172 633q31 123 31 177t-39 54q-102 0 -221 -327z" />
<glyph unicode="n" horiz-adv-x="1171" d="M74 549q135 385 301 385q119 0 119 -209q0 -41 -19.5 -126t-34.5 -122l6 -6q8 12 35 64.5t45.5 85t51 85t63.5 87t67 70.5q72 71 145 71q144 0 144 -197q0 -45 -13 -108.5t-28 -100.5l-131 -305q-33 -71 -33 -127q0 -59 48 -59q97 0 202 237q21 48 39 99l41 -13 q-82 -230 -181 -326q-60 -59 -119.5 -59t-97.5 49.5t-38 147.5q0 104 41 209l131 305q33 72 33 130q0 57 -43 56h-2q-125 0 -260 -231q-166 -277 -238 -506l-41 -135h-135l172 635q31 123 31 176t-40 53t-83 -51q-77 -91 -137 -276z" />
<glyph unicode="o" horiz-adv-x="946" d="M106 336q0 106 41 214.5t106.5 192.5t159 137.5t189.5 53.5q106 0 184 -88q86 -95 86 -273q0 -106 -39.5 -214.5t-105 -192.5t-158 -137.5t-195 -53.5t-185.5 94.5t-83 266.5zM254 219q0 -90 35 -142t90 -52t92 20.5t67 58.5q45 60 89.5 160t71 218t26.5 208t-33 142.5 t-88 52.5t-93 -20.5t-67 -58.5q-43 -55 -90 -158t-73.5 -221t-26.5 -208z" />
<glyph unicode="p" horiz-adv-x="1105" d="M-156 -487l17 57h151q25 0 37 10t19 35l280 1042q25 98 25 140.5t-9.5 54.5t-39 12t-73.5 -53q-79 -95 -138 -274l-41 12q135 385 303 385q89 0 111 -129q6 -31 6 -66l-3 -69l7 -4q27 67 112 166q39 45 90.5 73.5t100.5 28.5q109 0 169 -77t60 -203t-37 -242.5 t-96.5 -209t-154.5 -160t-176 -67.5q-161 0 -206 181l-8 4l-143 -545q-6 -25 0 -35t31 -10h249l-16 -57h-627zM410 204q0 -81 36.5 -130t100.5 -49q89 0 179 152q78 130 116.5 290t38.5 243q0 175 -95 175q-74 0 -145.5 -76t-120.5 -188.5t-79.5 -224t-30.5 -192.5z" />
<glyph unicode="q" horiz-adv-x="983" d="M86 254q0 125 46 244.5t106.5 216t154.5 158t172 61.5q163 0 199 -219h10l135 194h37l-352 -1294q-6 -25 2 -35t33 -10h151l-16 -57h-629l17 57h247q25 0 37.5 10t18.5 35q166 602 170 625l-7 4q-39 -92 -97 -155q-106 -114 -210.5 -114t-164.5 77t-60 202zM233 199 q0 -174 95 -174q74 0 145.5 75.5t120.5 187.5q111 255 111 408q0 90 -37 139.5t-101 49.5q-87 0 -179 -153q-79 -133 -117 -291t-38 -242z" />
<glyph unicode="r" horiz-adv-x="880" d="M74 549q135 385 301 385q119 0 119 -209q0 -57 -19 -119l14 -4q156 332 287 332q68 0 102.5 -41t35 -97t-34.5 -98.5t-81.5 -42.5t-68.5 25t-22 61.5t22 61t22.5 33t-0.5 13.5q-3 13 -26 13q-47 0 -127 -139q-148 -257 -252 -596l-39 -127h-135l172 635q31 123 31 176 t-39 53q-57 0 -116.5 -97t-104.5 -230z" />
<glyph unicode="s" horiz-adv-x="860" d="M49 217q0 49 28.5 92t72 43t66 -21.5t22.5 -65.5t-35 -54t-48.5 -25.5t-13.5 -47.5t21.5 -56.5t56.5 -35.5q67 -21 153.5 -21t143.5 49t57 131t-65 129l-170 129q-96 61 -96 186q0 134 102 213q93 72 213 72q61 0 114.5 -24.5t82.5 -62.5q61 -82 61 -135.5t-26.5 -88.5 t-69.5 -35t-67.5 21.5t-24.5 58.5t26 57q8 8 31 21t23 32q0 47 -52.5 77t-122 30t-131 -47t-61.5 -131q0 -64 26 -91q11 -10 33 -24l191 -143q29 -23 47 -41q51 -53 51 -118.5t-23.5 -119t-66.5 -97.5t-111.5 -71t-148.5 -27q-137 0 -213 73t-76 169z" />
<glyph unicode="t" horiz-adv-x="655" d="M106 146q0 79 23 169l147 537h-141l15 57h143l133 492h135l-133 -492h231l-14 -57h-233l-170 -631q-19 -62 -19 -102q0 -72 62 -72q80 0 133 128q33 79 67 198l41 -13q-88 -385 -268 -385q-68 0 -110 46t-42 125z" />
<glyph unicode="u" horiz-adv-x="1171" d="M74 549q82 230 181 327q60 58 119.5 58t97.5 -49t38 -148q0 -104 -41 -209l-131 -305q-33 -71 -33 -129q0 -57 43 -57h2q125 0 260 231q166 277 238 506l41 135h135l-172 -635q-31 -123 -31 -176t40 -53t83 51q76 90 137 277l41 -13q-135 -385 -301 -385q-119 0 -119 209 q0 41 19.5 126t34.5 122l-6 6q-8 -12 -35 -64t-45.5 -85t-51 -85t-63.5 -87t-67 -71q-72 -71 -145 -71q-144 0 -144 197q0 45 13 108.5t28 100.5l131 305q33 71 33 127q0 59 -48 59q-96 0 -202 -236q-21 -48 -39 -99z" />
<glyph unicode="v" horiz-adv-x="966" d="M74 549q82 230 181 327q60 58 119.5 58t97.5 -49t38 -148q0 -104 -41 -209l-131 -305q-33 -72 -33 -117t19.5 -63t81 -18t136 45t129 116.5t97.5 153.5q84 160 84 295q0 41 -16.5 56.5t-51 22.5t-69.5 37.5t-35 78.5t27.5 76t75.5 28t83 -37q60 -63 60 -192 q0 -138 -94 -358q-63 -146 -180 -256q-124 -116 -287 -116q-66 0 -116 52.5t-50 144.5q0 45 13 108.5t28 100.5l131 305q33 71 33 127q0 59 -48 59q-96 0 -202 -236q-21 -48 -39 -99z" />
<glyph unicode="w" horiz-adv-x="1466" d="M74 549q82 230 181 327q60 58 119.5 58t97.5 -49t38 -148q0 -104 -41 -209l-131 -305q-33 -72 -33 -121q0 -77 70 -77h2q57 0 126.5 64.5t130.5 161.5q133 209 189 413l66 245h135l-186 -688q-17 -65 -17 -109q0 -87 68 -87q78 0 152.5 45t129 116.5t97.5 153.5 q84 160 84 295q0 41 -16.5 56.5t-51.5 22.5t-69.5 37.5t-34.5 78.5t27.5 76t75.5 28t83 -37q59 -62 59 -192q0 -143 -94 -358q-64 -146 -180 -256q-123 -116 -287 -116q-72 0 -117 43t-45 127.5t19 151.5l-12 4q-66 -133 -164.5 -229.5t-177.5 -96.5t-123.5 51.5 t-44.5 145.5q0 45 13 108.5t28 100.5l131 305q33 71 33 127q0 59 -48 59q-96 0 -202 -236q-21 -48 -39 -99z" />
<glyph unicode="x" horiz-adv-x="1155" d="M51 121q0 68 38 114.5t79 46.5h4q88 0 88 -81q0 -70 -63 -99q-20 -10 -27.5 -17t-7.5 -28q0 -32 45 -32q96 0 172 109.5t121 279.5l51 188q16 59 16 135q0 148 -106 148q-80 0 -161 -90t-128 -203l-43 14q46 118 134 218q97 110 214 110q88 0 131 -60.5t49 -146.5l9 -4 q135 211 295 211q35 0 67 -14q86 -35 86 -132q0 -68 -37 -114.5t-94 -46.5q-27 0 -52.5 18t-25.5 71.5t60 82.5q23 10 31 21t8 32q0 33 -47.5 33t-93.5 -32t-82 -88q-74 -114 -115 -269l-52 -189q-16 -55 -16 -128q0 -154 107 -154q80 0 160.5 90t127.5 202l43 -14 q-53 -125 -114 -196q-114 -132 -234 -132q-86 0 -131 60.5t-49 146.5l-8 4q-135 -211 -295 -211q-35 0 -69 13q-85 34 -85 133z" />
<glyph unicode="y" horiz-adv-x="1048" d="M49 -307q0 57 33 90t76 33t63.5 -24.5t20.5 -66.5t-39 -73q-18 -16 -19 -45q0 -66 80 -66t131 23.5t115 102.5t123 300l88 330l-12 4q-66 -133 -164.5 -229.5t-177.5 -96.5t-123.5 51.5t-44.5 145.5q0 45 13 108.5t28 100.5l131 305q33 71 33 127q0 59 -48 59 q-96 0 -202 -236q-21 -48 -39 -99l-41 12q82 230 181 327q60 58 119.5 58t97.5 -49t38 -148q0 -104 -41 -209l-131 -305q-33 -72 -33 -121q0 -77 70 -77h2q57 0 126.5 64.5t130.5 161.5q133 209 189 413l68 245h135l-242 -909q-23 -88 -76 -195.5t-122 -180.5 q-125 -132 -291 -132q-111 0 -178.5 53.5t-67.5 147.5z" />
<glyph unicode="z" horiz-adv-x="901" d="M53 79.5q0 55.5 33 125t86 123.5q101 102 231 157q180 74 255 122t102 114q-4 6 -4 8q-55 -41 -95.5 -41t-68 8.5t-41.5 18.5t-37 26q-55 45 -102 45t-85 -19t-65 -55q-44 -61 -69 -126l-33 14q26 101 76 180q98 154 198 154t182 -117q52 -67 80 -67q59 0 60 36 q0 20 -26 32.5t-25 49.5q0 66 57 66q39 0 58.5 -27.5t19.5 -70.5q0 -102 -102.5 -217t-248.5 -177q-207 -86 -267 -127t-72 -96q86 -23 172 -67q87 -46 157 -46h3q68 0 109 24q42 24 69 64q52 74 79 156l39 -16q-61 -196 -130 -274q-73 -85 -171 -85q-53 0 -99 20.5 t-70.5 42t-67.5 69.5t-80 48.5t-37 -32.5q0 -23 31 -33q35 -14 34 -51q0 -64 -61 -64q-33 0 -53.5 24.5t-20.5 80z" />
<glyph unicode="{" horiz-adv-x="860" d="M217 -145q0 119 104.5 296.5t104.5 272.5q0 61 -45 82.5t-135 21.5l10 37q145 0 194 45q55 50 68.5 120.5t13.5 139.5v99q0 229 116 352q106 113 306 174l13 -49q-164 -46 -215 -108q-47 -56 -56.5 -117.5t-11.5 -122.5v-125q-12 -342 -287 -424l-2 -4q129 -45 129 -189 q0 -70 -32.5 -155.5t-71.5 -148.5q-105 -171 -105 -255q0 -59 51 -94q46 -31 113 -55l-39 -49q-223 80 -223 256z" />
<glyph unicode="|" horiz-adv-x="581" d="M295 -406v1901h90v-1901h-90z" />
<glyph unicode="}" horiz-adv-x="860" d="M-16 -352q163 46 214 108q47 57 56.5 117.5t11.5 122.5v125q12 342 287 424l2 4q-129 45 -129 188q0 70 33 156t71 149q105 173 105 254q0 59 -51 94q-45 32 -113 56l39 49q223 -80 223 -256q0 -122 -104 -297q-105 -176 -105 -272q0 -61 45 -83t136 -22l-11 -37 q-146 0 -194 -44q-55 -50 -68.5 -120.5t-13.5 -140.5v-98q0 -228 -115 -353q-106 -114 -307 -173z" />
<glyph unicode="~" horiz-adv-x="1351" d="M123 518q0 80 61.5 141.5t171.5 61.5q112 0 277 -67q55 -23 145 -63t136 -59q135 -57 212 -57q33 0 57.5 25.5t24.5 68.5q0 78 -86 123l25 43q131 -60 131 -184q0 -80 -61.5 -141.5t-172.5 -61.5q-114 0 -275 66q-52 22 -195 84q-220 96 -300 96q-33 0 -57 -25.5 t-24 -68.5q0 -78 86 -123l-25 -43q-131 60 -131 184z" />
<glyph unicode="&#xa1;" horiz-adv-x="573" d="M-8 -365q0 78 92.5 289.5t116.5 280.5l143 385h49l-74 -416q-25 -141 -40.5 -282.5t-36.5 -256.5q-29 -143 -144 -143q-106 0 -106 143zM291 811q0 55 35.5 91t91 36t91.5 -36t36 -91t-36 -91t-91.5 -36t-91 36t-35.5 91z" />
<glyph unicode="&#xa2;" d="M279 324q0 266 180 456q70 74 137.5 112t151.5 42l67 246h49l-65 -246q76 0 140.5 -55.5t64.5 -149.5q0 -61 -35 -102t-78 -41t-63.5 21.5t-20.5 49.5q0 51 65 101q23 18 23 50t-28.5 54.5t-82.5 22.5l-235 -860h14q100 0 182 65.5t134 167.5l43 -14q-47 -96 -112 -158 q-118 -111 -257 -111h-16l-62 -221h-49l63 230q-96 25 -153 120t-57 220zM426 215.5q0 -141.5 78 -178.5l229 848q-23 0 -57 -21q-117 -76 -195 -329q-55 -178 -55 -319.5z" />
<glyph unicode="&#xa3;" horiz-adv-x="1474" d="M-66 86q0 61 46 106q89 87 249 87q106 0 220 -31q80 139 145 407q-207 28 -282 7q-38 -11 -91 -35l-16 45q82 57 187.5 57t215.5 -18q184 723 568 723q114 0 174 -60q75 -75 75 -159.5t-41 -127.5t-91 -43t-89 25t-39 72t24.5 67.5t50.5 20.5t42 -8.5t37 -8.5q33 0 33 35 q0 55 -43 98.5t-114.5 43.5t-117 -19.5t-78 -49.5t-61.5 -79t-47.5 -94t-36.5 -109q-31 -109 -47 -201t-37 -157q111 -20 213 -20.5t188 45.5l17 -46q-29 -23 -86.5 -40t-137 -17t-210.5 23q-78 -246 -207 -408q55 -20 125 -47q164 -64 245 -64t147 22t111.5 55.5t80.5 80.5 q60 79 87 197l41 -12q-18 -98 -62 -196.5t-116 -163.5t-150.5 -93.5t-167.5 -28.5t-152 19q-91 26 -224 100l-59 31q-162 -150 -355 -150q-66 0 -115 29t-49 90zM-8 89q0 -50 37 -61.5t77 -11.5q160 0 277 134q-133 59 -244 59q-57 0 -102 -35t-45 -85z" />
<glyph unicode="&#xa4;" d="M164 279l137 137q-100 123 -100 283.5t102 287.5l-139 139l63 64l138 -137q127 102 286.5 102t286.5 -102l137 137l64 -64l-140 -139q102 -127 102.5 -288t-100.5 -283l138 -137l-64 -64l-137 137q-127 -102 -286.5 -102t-286.5 102l-138 -137zM283 700.5 q0 -159.5 104.5 -264t264 -104.5t264 104.5t104.5 264t-104.5 266t-264 106.5t-264 -106.5t-104.5 -266z" />
<glyph unicode="&#xa5;" d="M131 0l19 66h155q55 0 72 57l82 299h-287l18 65h287l33 123h-287l19 66h274l-127 579q-12 52 -28.5 66t-41.5 14h-129l19 66h532l-18 -66h-84q-86 0 -61 -86l108 -516l344 418q43 55 43 102q0 42 -20.5 62t-46.5 20h-86l18 66h475l-18 -66h-78q-41 0 -75 -26.5t-81 -83.5 l-452 -549h286l-18 -66h-287l-33 -123h287l-18 -65h-287l-82 -299q-16 -57 43 -57h156l-19 -66h-606z" />
<glyph unicode="&#xa6;" horiz-adv-x="581" d="M295 -344v737h90v-737h-90zM295 758v737h90v-737h-90z" />
<glyph unicode="&#xa7;" horiz-adv-x="1269" d="M147 -96.5q0 59.5 45.5 111t114.5 51.5q33 0 61.5 -23t28.5 -64t-24.5 -66.5t-55.5 -25.5l-57 15q-22 0 -22 -61t57 -110.5t147 -49.5q85 0 161 60q85 67 85 206q0 43 -20.5 81t-42 56t-64.5 51l-225 170q-123 96 -123 227q0 98 80 205t182 158q-41 63 -41 161.5 t35 172.5t92 118q118 91 246 91q186 0 255 -178q19 -48 19 -107.5t-45 -110.5t-114 -51q-33 0 -62 22.5t-29 63.5t25 66.5t55 25.5l50 -8q30 0 30 57.5t-57 107.5t-148 50q-83 0 -160 -66q-85 -72 -85 -210q0 -61 27 -92q39 -46 87 -78l238 -178q123 -94 123 -228 q0 -98 -80 -204.5t-182 -157.5q41 -63 41 -161.5t-35 -172.5t-92 -118q-119 -91 -246 -91q-186 0 -256 178q-19 47 -19 106.5zM319 593q0 -79 82 -142l277 -209q31 -25 55 -52q76 43 126 119t50 155t-82 142l-276 209q-31 25 -55 51q-76 -43 -126.5 -118.5t-50.5 -154.5z " />
<glyph unicode="&#xa8;" horiz-adv-x="901" d="M381 1221q0 45 30.5 75.5t75.5 30.5t76 -30.5t31 -75.5t-31 -76t-76 -31t-75.5 31t-30.5 76zM766 1221q0 45 30.5 75.5t76 30.5t76 -30.5t30.5 -75.5t-30.5 -76t-76 -31t-76 31t-30.5 76z" />
<glyph unicode="&#xa9;" horiz-adv-x="1679" d="M147 729q0 156 57.5 297t156 243.5t235.5 164t292.5 61.5t293 -61.5t236 -164t155.5 -243.5t57 -297t-57 -297t-155.5 -243.5t-236 -164t-293 -61.5t-292.5 61.5t-235.5 164t-156 243.5t-57.5 297zM205 729q0 -143 53 -273t143.5 -225.5t218.5 -153t269 -57.5t269 57.5 t218 153t143.5 225.5t53.5 273t-53.5 273.5t-143.5 225.5t-218 152.5t-269 57.5t-269 -57.5t-218.5 -152.5t-143.5 -225.5t-53 -273.5zM500 692q0 229 111.5 372.5t306.5 143.5q82 0 167 -67q46 -32 71 7q15 23 15 48h37v-336h-37q-12 119 -94 209t-159 90q-238 0 -238 -467 q0 -195 72 -317q60 -101 161 -101q179 0 239 192q15 48 24 103h49q-8 -126 -79 -228q-36 -52 -96.5 -84t-147.5 -32t-169 41t-131 108q-102 141 -102 318z" />
<glyph unicode="&#xaa;" horiz-adv-x="778" d="M180 741l15 50h493l-14 -50h-494zM221 1019.5q0 73.5 21.5 142.5t58.5 130.5t95.5 101.5t111.5 40t84 -28t39 -58h6l18 73h103l-113 -403q-18 -61 -18 -90t22 -29q39 0 80 60.5t68 134.5l24 -11q-33 -88 -87 -163.5t-108 -75.5t-78 28.5t-24 53t6 39.5l-4 2 q-23 -43 -65.5 -83t-83.5 -40q-74 0 -115 51t-41 124.5zM328 975q0 -94 61 -94q53 0 110.5 84t84.5 188l16 64q10 33 10 78q0 102 -88 102q-53 0 -99 -66.5t-70.5 -164t-24.5 -191.5z" />
<glyph unicode="&#xab;" horiz-adv-x="901" d="M111 467q205 152 493 430l23 -20l-332 -410l111 -410l-35 -20q-141 284 -260 430zM414 467q143 115 334 315l22 -20l-219 -295l59 -295l-35 -20q-79 204 -161 315z" />
<glyph unicode="&#xac;" d="M147 831v82h992v-421h-90v339h-902z" />
<glyph unicode="&#xad;" horiz-adv-x="757" d="M115 401q0 72 36.5 122t102.5 50h360q31 0 44.5 13.5t13.5 44.5h37q0 -72 -37 -122t-103 -50h-360q-31 0 -44 -13.5t-13 -44.5h-37z" />
<glyph unicode="&#xae;" horiz-adv-x="1679" d="M147 729q0 156 57.5 297t156 243.5t235.5 164t292.5 61.5t293 -61.5t236 -164t155.5 -243.5t57 -297t-57 -297t-155.5 -243.5t-236 -164t-293 -61.5t-292.5 61.5t-235.5 164t-156 243.5t-57.5 297zM205 729q0 -143 53 -273t143.5 -225.5t218.5 -153t269 -57.5t269 57.5 t218 153t143.5 225.5t53.5 273t-53.5 273.5t-143.5 225.5t-218 152.5t-269 57.5t-269 -57.5t-218.5 -152.5t-143.5 -225.5t-53 -273.5zM459 266v49h86q25 0 35 10.5t10 34.5v746q0 25 -10.5 35t-34.5 10h-86v49h467q129 0 214 -58.5t85 -166.5q0 -122 -120 -183 q-42 -22 -101 -34v-8q167 -35 186 -236q2 -16 5 -56t6 -61.5t7 -34t12 -23.5q19 -24 46 -24t45 20.5t27 53.5q14 56 14 111h37q0 -183 -95 -238q-34 -20 -88.5 -20t-95.5 28q-76 53 -76 179v110q0 137 -92 167q-22 7 -45 7h-160v-373q0 -25 10.5 -35t34.5 -10h90v-49h-413z M737 782h158q68 0 108.5 47.5t40.5 133.5q0 188 -151 188h-111q-25 0 -35 -10.5t-10 -34.5v-324z" />
<glyph unicode="&#xb0;" d="M397 953.5q0 118.5 75 255.5q125 225 337 225q80 0 135 -70t55 -180q0 -128 -71 -256q-79 -143 -194 -200q-66 -32 -146 -32t-135.5 69.5t-55.5 188zM545 946q0 -82 34.5 -125t79.5 -43q119 0 201 131t82 308q0 82 -35 124.5t-80 42.5q-119 0 -200.5 -131t-81.5 -307z " />
<glyph unicode="&#xb1;" horiz-adv-x="1925" d="M131 0h1712v-82h-1712v82zM131 692v82h819v561h90v-561h820v-82h-820v-561h-90v561h-819z" />
<glyph unicode="&#xb2;" horiz-adv-x="901" d="M197 602q0 94 51 153.5t147 104.5l172 92q86 43 150.5 116t64.5 150q0 171 -155 171q-70 0 -129.5 -49.5t-59.5 -89.5t17 -40q12 0 23 8.5t31 8.5t36 -15.5t16 -46.5t-25.5 -57.5t-66.5 -26.5t-66.5 32t-25.5 81q0 96 84 170t197.5 74t184 -61.5t70.5 -159.5 q0 -91 -79 -171q-54 -53 -202 -120q-28 -13 -34 -17l-139 -65q-80 -39 -89 -47t-10 -25q0 -27 88.5 -54.5t149.5 -27.5q111 0 164 84l24 51h23q-40 -116 -68 -159t-51 -66q-47 -47 -94 -47t-80 16.5t-55.5 41t-42.5 49.5q-49 57 -84 57q-72 0 -72 -51q0 -14 12 -31.5 t13 -32.5q0 -47 -45 -47t-45 47z" />
<glyph unicode="&#xb3;" horiz-adv-x="901" d="M229 739.5q0 75.5 37 109.5t78 34q74 0 74 -78q0 -29 -19.5 -47.5t-58.5 -18.5t-39 -20q0 -53 42 -85t108 -32q102 0 165.5 79t63.5 174t-25.5 124t-76 29t-77 -19.5t-51.5 -19.5q-49 0 -49 43q0 16 11.5 30.5t33.5 14.5h152q70 0 123 63.5t53 141.5t-33.5 106.5 t-102.5 28.5t-121 -30t-52 -73q0 -20 10 -20l35 8q51 0 51 -53q0 -33 -18.5 -55.5t-57.5 -22.5t-61.5 26.5t-22.5 65.5q0 84 74 139.5t176.5 55.5t172 -48.5t69.5 -140.5q0 -133 -156 -195q-37 -14 -69 -18l-2 -8q63 -20 104 -59t41 -120t-55.5 -151.5t-137 -107.5 t-175.5 -37t-154 55.5t-60 131z" />
<glyph unicode="&#xb4;" horiz-adv-x="901" d="M598 1065l217 252q47 55 98 55q58 0 58 -59q0 -51 -66 -94l-282 -179z" />
<glyph unicode="&#xb5;" horiz-adv-x="1171" d="M61 -373q0 285 107 668l172 614h135l-110 -409q-39 -205 -39 -262q0 -188 100 -189q86 0 162 100.5t117 247.5l139 512h139l-188 -702q-36 -131 14 -152q14 -6 33 -6q94 0 258 311l30 -18q-95 -193 -174 -276q-85 -91 -160 -91t-111 44t-36 108q0 25 6 45l-14 4 q-121 -201 -254 -201q-80 0 -127 68t-47 156l-14 6l-37 -174q-8 -39 -8 -115q0 -145 73 -295q35 -72 35 -111q0 -88 -74 -88q-43 0 -72 34q-55 63 -55 171z" />
<glyph unicode="&#xb6;" horiz-adv-x="1105" d="M303 -319l301 1110q-123 0 -195.5 61t-72.5 170q0 154 126 290q58 64 144 105t180 41h500l-20 -69h-140l-462 -1708h-78l463 1708h-205l-463 -1708h-78z" />
<glyph unicode="&#xb7;" horiz-adv-x="573" d="M270 647.5q0 55.5 36 91t91 35.5t91 -35.5t36 -91t-36 -91.5t-91 -36t-91 36t-36 91.5z" />
<glyph unicode="&#xb8;" horiz-adv-x="901" d="M115 -315q0 49 24.5 82.5t61.5 33.5q57 0 57 -63q0 -20 -15.5 -36.5t-34 -16.5t-18.5 -23q0 -51 68.5 -51t96.5 33.5t28 76.5t-24.5 97.5t-24.5 87.5t18 67l31 52l39 -25l-27 -43q-8 -14 -8 -39t49 -73.5t49 -112.5t-62.5 -115t-138 -51t-122.5 35t-47 84z" />
<glyph unicode="&#xb9;" horiz-adv-x="901" d="M266 573l15 50h112q35 0 43 30l164 578q-55 -31 -151 -51l-7 43q78 14 160 63t135 131h45l-215 -764q-7 -30 27 -30h113l-15 -50h-426z" />
<glyph unicode="&#xba;" horiz-adv-x="778" d="M180 741l15 50h493l-14 -50h-494zM274 1038q0 86 44 175.5t124 153t167 63.5t136.5 -57.5t49.5 -143.5t-45 -175t-126 -151.5t-166 -62.5t-134.5 56t-49.5 142zM381 991q0 -115 82 -114q61 0 114.5 67.5t82 157.5t28.5 170q0 121 -86 121q-59 0 -112.5 -70t-81 -162 t-27.5 -170z" />
<glyph unicode="&#xbb;" horiz-adv-x="901" d="M147 172l220 295l-60 295l35 20q80 -205 162 -315q-143 -115 -334 -315zM291 57l332 410l-111 410l35 20q141 -284 260 -430q-205 -152 -494 -430z" />
<glyph unicode="&#xbc;" horiz-adv-x="1794" d="M266 573l15 50h112q35 0 43 30l164 578q-55 -31 -151 -51l-7 43q78 14 160 63t135 131h45l-215 -764q-7 -30 27 -30h113l-15 -50h-426zM508 0l901 1438l53 -37l-901 -1438zM1040 230l17 53l266 248q80 76 134 162t64 159h148q-16 -61 -46 -108t-108 -117l-385 -344h252 l60 205q102 63 149 170h23l-99 -375h205l-16 -53h-205l-39 -148q-6 -18 -2 -25t23 -7h120l-12 -50h-434l12 50h117q35 0 43 32l41 148h-328z" />
<glyph unicode="&#xbd;" horiz-adv-x="1794" d="M266 573l15 50h112q35 0 43 30l164 578q-55 -31 -151 -51l-7 43q78 14 160 63t135 131h45l-215 -764q-7 -30 27 -30h113l-15 -50h-426zM508 0l901 1438l53 -37l-901 -1438zM1016 29q0 94 51 153.5t147 104.5l172 92q86 43 150.5 116t64.5 150q0 171 -155 171 q-70 0 -129.5 -49.5t-59.5 -89.5t17 -40q12 0 23 8.5t31 8.5t36 -15.5t16 -46.5t-25.5 -57.5t-66.5 -26.5t-66.5 32t-25.5 81q0 96 84 170t197.5 74t184 -61.5t70.5 -159.5q0 -91 -79 -171q-54 -53 -202 -120q-28 -13 -34 -17l-139 -65q-80 -39 -89 -47t-10 -25 q0 -27 88.5 -54.5t149.5 -27.5q111 0 164 84l24 51h23q-40 -116 -68 -159t-51 -66q-47 -47 -94 -47t-80 16.5t-55.5 41t-42.5 49.5q-49 57 -84 57q-72 0 -72 -51q0 -14 12 -31.5t13 -32.5q0 -47 -45 -47t-45 47z" />
<glyph unicode="&#xbe;" horiz-adv-x="1794" d="M229 739.5q0 75.5 37 109.5t78 34q74 0 74 -78q0 -29 -19.5 -47.5t-58.5 -18.5t-39 -20q0 -53 42 -85t108 -32q102 0 165.5 79t63.5 174t-25.5 124t-76 29t-77 -19.5t-51.5 -19.5q-49 0 -49 43q0 16 11.5 30.5t33.5 14.5h152q70 0 123 63.5t53 141.5t-33.5 106.5 t-102.5 28.5t-121 -30t-52 -73q0 -20 10 -20l35 8q51 0 51 -53q0 -33 -18.5 -55.5t-57.5 -22.5t-61.5 26.5t-22.5 65.5q0 84 74 139.5t176.5 55.5t172 -48.5t69.5 -140.5q0 -133 -156 -195q-37 -14 -69 -18l-2 -8q63 -20 104 -59t41 -120t-55.5 -151.5t-137 -107.5 t-175.5 -37t-154 55.5t-60 131zM508 0l901 1438l53 -37l-901 -1438zM1040 230l17 53l266 248q80 76 134 162t64 159h148q-16 -61 -46 -108t-108 -117l-385 -344h252l60 205q102 63 149 170h23l-99 -375h205l-16 -53h-205l-39 -148q-6 -18 -2 -25t23 -7h120l-12 -50h-434 l12 50h117q35 0 43 32l41 148h-328z" />
<glyph unicode="&#xbf;" horiz-adv-x="892" d="M-8 -180q0 90 63.5 171t161.5 128l272 131q146 79 146 180q0 53 -31 80t-76 27q-84 0 -123.5 -47.5t-39.5 -98.5t20 -74l-25 -18q-37 37 -36 94q0 86 61 145.5t145.5 59.5t137.5 -49t53 -127t-47 -143.5t-121 -110.5l-254 -152q-160 -86 -160 -217q0 -109 51.5 -177 t145.5 -68q170 0 246 86q36 42 36 70t-7 38t-35.5 26.5t-38 35t-9.5 51.5t21.5 53t65.5 20t73 -32.5t29 -106.5t-63.5 -147.5t-155.5 -114.5t-181 -41q-160 0 -242.5 92.5t-82.5 235.5zM516 811q0 55 36 91t91 36t91 -36t36 -91t-36 -91t-91 -36t-91 36t-36 91z" />
<glyph unicode="&#xc0;" horiz-adv-x="1490" d="M-90 0l16 66h76q84 0 149.5 43t104.5 104l842 1245h49v-1304q4 -51 28.5 -69.5t69.5 -18.5h115l-17 -66h-606l17 66h127q41 0 63.5 18t22.5 76v340h-428l-140 -205q-70 -98 -69 -160q0 -70 82 -69h112l-16 -66h-598zM590 573h377v551zM910 1820.5q0 26.5 4 41t22.5 29 t44.5 14.5q59 0 86 -76l84 -250l-30 -18l-181 198q-30 35 -30 61.5z" />
<glyph unicode="&#xc1;" horiz-adv-x="1490" d="M-90 0l16 66h76q84 0 149.5 43t104.5 104l842 1245h49v-1304q4 -51 28.5 -69.5t69.5 -18.5h115l-17 -66h-606l17 66h127q41 0 63.5 18t22.5 76v340h-428l-140 -205q-70 -98 -69 -160q0 -70 82 -69h112l-16 -66h-598zM590 573h377v551zM1102 1585l217 252q47 55 101.5 55 t54.5 -57t-66 -96l-282 -178z" />
<glyph unicode="&#xc2;" horiz-adv-x="1490" d="M-90 0l16 66h76q84 0 149.5 43t104.5 104l842 1245h49v-1304q4 -51 28.5 -69.5t69.5 -18.5h115l-17 -66h-606l17 66h127q41 0 63.5 18t22.5 76v340h-428l-140 -205q-70 -98 -69 -160q0 -70 82 -69h112l-16 -66h-598zM590 573h377v551zM811 1593q217 106 361 291h82 q49 -184 205 -291l-29 -32q-49 18 -126 78.5t-124 117.5q-82 -57 -190.5 -117.5t-165.5 -78.5z" />
<glyph unicode="&#xc3;" horiz-adv-x="1490" d="M-90 0l16 66h76q84 0 149.5 43t104.5 104l842 1245h49v-1304q4 -51 28.5 -69.5t69.5 -18.5h115l-17 -66h-606l17 66h127q41 0 63.5 18t22.5 76v340h-428l-140 -205q-70 -98 -69 -160q0 -70 82 -69h112l-16 -66h-598zM590 573h377v551zM864 1659q0 80 43 136t115 56 t180 -41t150.5 -41t57.5 20.5t23 61.5h45q0 -80 -43 -136t-114.5 -56t-180 41t-150.5 41t-57.5 -20.5t-23.5 -61.5h-45z" />
<glyph unicode="&#xc4;" horiz-adv-x="1490" d="M-90 0l16 66h76q84 0 149.5 43t104.5 104l842 1245h49v-1304q4 -51 28.5 -69.5t69.5 -18.5h115l-17 -66h-606l17 66h127q41 0 63.5 18t22.5 76v340h-428l-140 -205q-70 -98 -69 -160q0 -70 82 -69h112l-16 -66h-598zM590 573h377v551zM869 1741q0 45 30.5 75.5t75.5 30.5 t76 -30.5t31 -75.5t-31 -76t-76 -31t-75.5 31t-30.5 76zM1287 1741q0 45 30.5 75.5t75.5 30.5t76 -30.5t31 -75.5t-31 -76t-76 -31t-75.5 31t-30.5 76z" />
<glyph unicode="&#xc5;" horiz-adv-x="1490" d="M-90 0l16 66h76q84 0 149.5 43t104.5 104l842 1245h49v-1304q4 -51 28.5 -69.5t69.5 -18.5h115l-17 -66h-606l17 66h127q41 0 63.5 18t22.5 76v340h-428l-140 -205q-70 -98 -69 -160q0 -70 82 -69h112l-16 -66h-598zM590 573h377v551zM934 1745q0 82 57.5 139.5 t141.5 57.5t141.5 -57.5t57.5 -139.5t-57.5 -141.5t-141.5 -59.5t-141.5 59.5t-57.5 141.5zM983 1744.5q0 -65.5 43.5 -108.5t106.5 -43t106.5 43t43.5 108.5t-43.5 106.5t-106.5 41t-106.5 -41t-43.5 -106.5z" />
<glyph unicode="&#xc6;" horiz-adv-x="2068" d="M-90 0l16 66h80q133 0 248 147l799 997q8 10 21 26.5t20.5 25t18.5 21.5t16.5 22.5t11.5 19.5q12 20 12 37q0 31 -47 31h-94l16 65h1131l-95 -467h-51q6 43 6 115t-14 132t-45 93q-58 62 -162 62h-336q-55 0 -69 -56l-148 -546h221q128 0 192 125q25 50 35.5 90.5 t20.5 74.5h51l-180 -671h-51q20 90 20 158q0 149 -122 149h-207l-162 -596q-15 -55 39 -55h381q53 0 124.5 26.5t129.5 79.5q57 57 111.5 151.5t80.5 159.5l25 66h49l-172 -549h-1196l16 66h154q55 0 72 55l102 381h-404l-165 -207q-2 -4 -15.5 -21.5t-23 -31t-20.5 -34.5 q-25 -49 -25 -83q0 -59 73 -59h99l-17 -66h-571zM631 575h366l189 695z" />
<glyph unicode="&#xc7;" horiz-adv-x="1372" d="M188 516q0 139 43 284.5t121 268.5t175.5 219t213 151.5t239.5 55.5t218 -94l37 -37q16 -16 23.5 -20.5t15.5 -9.5t20.5 -5t24.5 5t20.5 17.5t14.5 22.5t12 28q8 24 14 56l6 21h48l-131 -627h-48l2 129q0 72 -19 174t-69 170q-78 104 -203.5 104.5t-224 -74.5 t-181.5 -229q-175 -326 -175 -725q0 -265 125 -337q60 -35 161 -35t211 67q215 133 308 400l63 -23q-89 -264 -285 -405q-146 -105 -345 -105h-9q-14 -21 -14 -48.5t40 -56.5q81 -60 81 -126q0 -94 -82 -156.5t-195 -62.5q-63 0 -112 42t-49 96t26.5 85t61.5 31q66 0 65 -60 q0 -51 -49 -67q-16 -8 -16 -31q0 -47 70.5 -47t116.5 47t46 105t-33 111.5t-32.5 83.5t14.5 60q-147 29 -250 155q-115 139 -115 392z" />
<glyph unicode="&#xc8;" horiz-adv-x="1433" d="M-20 0l16 66h156q53 0 69 55l330 1216q18 55 -39 56h-156l17 65h1130l-94 -467h-51q6 43 6 115t-14.5 132t-45.5 93q-57 62 -161 62h-336q-55 0 -70 -56l-147 -546h221q153 0 215 182q12 35 17.5 54.5t15.5 53.5h51l-180 -671h-51q20 90 20 158q0 149 -123 149h-207 l-161 -596q-14 -55 38 -55h381q53 0 125 26.5t129 81.5t111.5 149.5t81.5 159.5l24 66h50l-172 -549h-1196zM762 1820.5q0 26.5 4 41t22.5 29t44.5 14.5q59 0 86 -76l84 -250l-30 -18l-181 198q-30 35 -30 61.5z" />
<glyph unicode="&#xc9;" horiz-adv-x="1433" d="M-20 0l16 66h156q53 0 69 55l330 1216q18 55 -39 56h-156l17 65h1130l-94 -467h-51q6 43 6 115t-14.5 132t-45.5 93q-57 62 -161 62h-336q-55 0 -70 -56l-147 -546h221q153 0 215 182q12 35 17.5 54.5t15.5 53.5h51l-180 -671h-51q20 90 20 158q0 149 -123 149h-207 l-161 -596q-14 -55 38 -55h381q53 0 125 26.5t129 81.5t111.5 149.5t81.5 159.5l24 66h50l-172 -549h-1196zM954 1585l217 252q47 55 101.5 55t54.5 -57t-66 -96l-282 -178z" />
<glyph unicode="&#xca;" horiz-adv-x="1433" d="M-20 0l16 66h156q53 0 69 55l330 1216q18 55 -39 56h-156l17 65h1130l-94 -467h-51q6 43 6 115t-14.5 132t-45.5 93q-57 62 -161 62h-336q-55 0 -70 -56l-147 -546h221q153 0 215 182q12 35 17.5 54.5t15.5 53.5h51l-180 -671h-51q20 90 20 158q0 149 -123 149h-207 l-161 -596q-14 -55 38 -55h381q53 0 125 26.5t129 81.5t111.5 149.5t81.5 159.5l24 66h50l-172 -549h-1196zM663 1593q217 106 361 291h82q49 -184 205 -291l-29 -32q-49 18 -126 78.5t-124 117.5q-82 -57 -190.5 -117.5t-165.5 -78.5z" />
<glyph unicode="&#xcb;" horiz-adv-x="1433" d="M-20 0l16 66h156q53 0 69 55l330 1216q18 55 -39 56h-156l17 65h1130l-94 -467h-51q6 43 6 115t-14.5 132t-45.5 93q-57 62 -161 62h-336q-55 0 -70 -56l-147 -546h221q153 0 215 182q12 35 17.5 54.5t15.5 53.5h51l-180 -671h-51q20 90 20 158q0 149 -123 149h-207 l-161 -596q-14 -55 38 -55h381q53 0 125 26.5t129 81.5t111.5 149.5t81.5 159.5l24 66h50l-172 -549h-1196zM721 1741q0 45 30.5 75.5t75.5 30.5t76 -30.5t31 -75.5t-31 -76t-76 -31t-75.5 31t-30.5 76zM1139 1741q0 45 30.5 75.5t75.5 30.5t76 -30.5t31 -75.5t-31 -76 t-76 -31t-75.5 31t-30.5 76z" />
<glyph unicode="&#xcc;" horiz-adv-x="819" d="M-20 0l16 66h156q53 0 69 55l330 1216q18 55 -39 56h-156l17 65h606l-16 -65h-156q-55 0 -70 -56l-329 -1216q-14 -55 38 -55h156l-16 -66h-606zM492 1820.5q0 26.5 4 41t22.5 29t44.5 14.5q59 0 86 -76l84 -250l-30 -18l-181 198q-30 35 -30 61.5z" />
<glyph unicode="&#xcd;" horiz-adv-x="819" d="M-20 0l16 66h156q53 0 69 55l330 1216q18 55 -39 56h-156l17 65h606l-16 -65h-156q-55 0 -70 -56l-329 -1216q-14 -55 38 -55h156l-16 -66h-606zM684 1585l217 252q47 55 101.5 55t54.5 -57t-66 -96l-282 -178z" />
<glyph unicode="&#xce;" horiz-adv-x="819" d="M-20 0l16 66h156q53 0 69 55l330 1216q18 55 -39 56h-156l17 65h606l-16 -65h-156q-55 0 -70 -56l-329 -1216q-14 -55 38 -55h156l-16 -66h-606zM393 1593q217 106 361 291h82q49 -184 205 -291l-29 -32q-49 18 -126 78.5t-124 117.5q-82 -57 -190.5 -117.5t-165.5 -78.5 z" />
<glyph unicode="&#xcf;" horiz-adv-x="819" d="M-20 0l16 66h156q53 0 69 55l330 1216q18 55 -39 56h-156l17 65h606l-16 -65h-156q-55 0 -70 -56l-329 -1216q-14 -55 38 -55h156l-16 -66h-606zM451 1741q0 45 30.5 75.5t75.5 30.5t76 -30.5t31 -75.5t-31 -76t-76 -31t-75.5 31t-30.5 76zM869 1741q0 45 30.5 75.5 t75.5 30.5t76 -30.5t31 -75.5t-31 -76t-76 -31t-75.5 31t-30.5 76z" />
<glyph unicode="&#xd1;" horiz-adv-x="1617" d="M-20 0l16 66h98q66 0 115 55t72 137l292 1079q15 56 -38 56h-179l17 65h372l429 -1194l256 936q14 49 14 88q0 104 -105 105h-98l16 65h553l-16 -65h-98q-57 0 -110.5 -51.5t-76.5 -141.5l-335 -1237h-82l-453 1272h-10l-269 -977q-12 -45 -12 -88q0 -104 103 -104h98 l-17 -66h-552zM856 1659q0 80 43 136t115 56t180 -41t150.5 -41t57.5 20.5t23 61.5h45q0 -80 -43 -136t-114.5 -56t-180 41t-150.5 41t-57.5 -20.5t-23.5 -61.5h-45z" />
<glyph unicode="&#xd2;" horiz-adv-x="1454" d="M188 514.5q0 153.5 45.5 307t123 273t176 211t213 140.5t235.5 49t221.5 -76t151.5 -200.5t51 -278.5t-45 -307.5t-123 -272t-176 -209t-213 -139.5t-235.5 -49t-221 76t-152 199t-51.5 276.5zM385 393q0 -180 65.5 -272t188.5 -92q74 0 143.5 31.5t118.5 79.5t94 116 q70 105 123 252q90 254 90 557q0 180 -65.5 272.5t-188.5 92.5q-74 0 -143.5 -32t-118.5 -80t-94 -116q-63 -95 -123 -252q-90 -254 -90 -557zM795 1820.5q0 26.5 4 41t22.5 29t44.5 14.5q59 0 86 -76l84 -250l-30 -18l-181 198q-30 35 -30 61.5z" />
<glyph unicode="&#xd3;" horiz-adv-x="1454" d="M188 514.5q0 153.5 45.5 307t123 273t176 211t213 140.5t235.5 49t221.5 -76t151.5 -200.5t51 -278.5t-45 -307.5t-123 -272t-176 -209t-213 -139.5t-235.5 -49t-221 76t-152 199t-51.5 276.5zM385 393q0 -180 65.5 -272t188.5 -92q74 0 143.5 31.5t118.5 79.5t94 116 q70 105 123 252q90 254 90 557q0 180 -65.5 272.5t-188.5 92.5q-74 0 -143.5 -32t-118.5 -80t-94 -116q-63 -95 -123 -252q-90 -254 -90 -557zM987 1585l217 252q47 55 101.5 55t54.5 -57t-66 -96l-282 -178z" />
<glyph unicode="&#xd4;" horiz-adv-x="1454" d="M188 514.5q0 153.5 45.5 307t123 273t176 211t213 140.5t235.5 49t221.5 -76t151.5 -200.5t51 -278.5t-45 -307.5t-123 -272t-176 -209t-213 -139.5t-235.5 -49t-221 76t-152 199t-51.5 276.5zM385 393q0 -180 65.5 -272t188.5 -92q74 0 143.5 31.5t118.5 79.5t94 116 q70 105 123 252q90 254 90 557q0 180 -65.5 272.5t-188.5 92.5q-74 0 -143.5 -32t-118.5 -80t-94 -116q-63 -95 -123 -252q-90 -254 -90 -557zM696 1593q217 106 361 291h82q49 -184 205 -291l-29 -32q-49 18 -126 78.5t-124 117.5q-82 -57 -190.5 -117.5t-165.5 -78.5z" />
<glyph unicode="&#xd5;" horiz-adv-x="1454" d="M188 514.5q0 153.5 45.5 307t123 273t176 211t213 140.5t235.5 49t221.5 -76t151.5 -200.5t51 -278.5t-45 -307.5t-123 -272t-176 -209t-213 -139.5t-235.5 -49t-221 76t-152 199t-51.5 276.5zM385 393q0 -180 65.5 -272t188.5 -92q74 0 143.5 31.5t118.5 79.5t94 116 q70 105 123 252q90 254 90 557q0 180 -65.5 272.5t-188.5 92.5q-74 0 -143.5 -32t-118.5 -80t-94 -116q-63 -95 -123 -252q-90 -254 -90 -557zM762 1659q0 80 43 136t115 56t180 -41t150.5 -41t57.5 20.5t23 61.5h45q0 -80 -43 -136t-114.5 -56t-180 41t-150.5 41 t-57.5 -20.5t-23.5 -61.5h-45z" />
<glyph unicode="&#xd6;" horiz-adv-x="1454" d="M188 514.5q0 153.5 45.5 307t123 273t176 211t213 140.5t235.5 49t221.5 -76t151.5 -200.5t51 -278.5t-45 -307.5t-123 -272t-176 -209t-213 -139.5t-235.5 -49t-221 76t-152 199t-51.5 276.5zM385 393q0 -180 65.5 -272t188.5 -92q74 0 143.5 31.5t118.5 79.5t94 116 q70 105 123 252q90 254 90 557q0 180 -65.5 272.5t-188.5 92.5q-74 0 -143.5 -32t-118.5 -80t-94 -116q-63 -95 -123 -252q-90 -254 -90 -557zM754 1741q0 45 30.5 75.5t75.5 30.5t76 -30.5t31 -75.5t-31 -76t-76 -31t-75.5 31t-30.5 76zM1172 1741q0 45 30.5 75.5 t75.5 30.5t76 -30.5t31 -75.5t-31 -76t-76 -31t-75.5 31t-30.5 76z" />
<glyph unicode="&#xd7;" horiz-adv-x="1925" d="M336 -37l579 578l-579 577l65 66l578 -580l577 580l66 -66l-580 -577l580 -578l-66 -65l-577 579l-578 -579z" />
<glyph unicode="&#xd8;" horiz-adv-x="1454" d="M90 12l170 185q-72 135 -72 303t45.5 321.5t123 273t176 211t213 140.5t220.5 49q213 0 330 -174l162 174l49 -49l-172 -189q70 -135 70 -303t-45 -321.5t-123 -272t-176 -209t-213 -139.5t-225 -49q-203 0 -326 172l-158 -172zM385 393q0 -41 2 -59l807 874 q-47 221 -240 222q-74 0 -143.5 -32t-118.5 -80t-94 -116q-63 -95 -123 -252q-90 -254 -90 -557zM399 246q25 -106 86.5 -161.5t144.5 -55.5t152.5 31.5t118.5 79.5t94 116q70 105 123 252q90 254 90 557q0 37 -2 55z" />
<glyph unicode="&#xd9;" horiz-adv-x="1605" d="M266 343.5q0 65.5 19 143.5l229 850q6 29 -2 42.5t-37 13.5h-156l17 65h606l-16 -65h-156q-55 0 -70 -56l-243 -905q-18 -78 -19 -117q0 -135 88 -210.5t230 -75.5q266 0 394 239q34 64 54 138l219 798q46 189 -92 189h-98l16 65h553l-16 -65h-98q-61 0 -112.5 -54.5 t-74.5 -138.5l-213 -774q-90 -340 -330 -428q-96 -35 -217 -35t-213 32t-148 86t-85 125.5t-29 137zM897 1820.5q0 26.5 4 41t22.5 29t44.5 14.5q59 0 86 -76l84 -250l-30 -18l-181 198q-30 35 -30 61.5z" />
<glyph unicode="&#xda;" horiz-adv-x="1605" d="M266 343.5q0 65.5 19 143.5l229 850q6 29 -2 42.5t-37 13.5h-156l17 65h606l-16 -65h-156q-55 0 -70 -56l-243 -905q-18 -78 -19 -117q0 -135 88 -210.5t230 -75.5q266 0 394 239q34 64 54 138l219 798q46 189 -92 189h-98l16 65h553l-16 -65h-98q-61 0 -112.5 -54.5 t-74.5 -138.5l-213 -774q-90 -340 -330 -428q-96 -35 -217 -35t-213 32t-148 86t-85 125.5t-29 137zM1089 1585l217 252q47 55 101.5 55t54.5 -57t-66 -96l-282 -178z" />
<glyph unicode="&#xdb;" horiz-adv-x="1605" d="M266 343.5q0 65.5 19 143.5l229 850q6 29 -2 42.5t-37 13.5h-156l17 65h606l-16 -65h-156q-55 0 -70 -56l-243 -905q-18 -78 -19 -117q0 -135 88 -210.5t230 -75.5q266 0 394 239q34 64 54 138l219 798q46 189 -92 189h-98l16 65h553l-16 -65h-98q-61 0 -112.5 -54.5 t-74.5 -138.5l-213 -774q-90 -340 -330 -428q-96 -35 -217 -35t-213 32t-148 86t-85 125.5t-29 137zM798 1593q217 106 361 291h82q49 -184 205 -291l-29 -32q-49 18 -126 78.5t-124 117.5q-82 -57 -190.5 -117.5t-165.5 -78.5z" />
<glyph unicode="&#xdc;" horiz-adv-x="1605" d="M266 343.5q0 65.5 19 143.5l229 850q6 29 -2 42.5t-37 13.5h-156l17 65h606l-16 -65h-156q-55 0 -70 -56l-243 -905q-18 -78 -19 -117q0 -135 88 -210.5t230 -75.5q266 0 394 239q34 64 54 138l219 798q46 189 -92 189h-98l16 65h553l-16 -65h-98q-61 0 -112.5 -54.5 t-74.5 -138.5l-213 -774q-90 -340 -330 -428q-96 -35 -217 -35t-213 32t-148 86t-85 125.5t-29 137zM856 1741q0 45 30.5 75.5t75.5 30.5t76 -30.5t31 -75.5t-31 -76t-76 -31t-75.5 31t-30.5 76zM1274 1741q0 45 30.5 75.5t75.5 30.5t76 -30.5t31 -75.5t-31 -76t-76 -31 t-75.5 31t-30.5 76z" />
<glyph unicode="&#xdd;" horiz-adv-x="1474" d="M217 0l16 66h205q53 0 68 53l143 532l-162 652q-16 51 -38.5 70.5t-63.5 19.5h-152l17 65h647l-16 -65h-121q-51 0 -76 -31t-10 -66l135 -569l352 406q31 37 46.5 54t36 56t20.5 70q0 80 -99 80h-88l17 65h606l-17 -65h-96q-117 0 -244 -150l-501 -569l-150 -555 q-16 -53 37 -53h205l-16 -66h-701zM979 1585l217 252q47 55 101.5 55t54.5 -57t-66 -96l-282 -178z" />
<glyph unicode="&#xde;" horiz-adv-x="1388" d="M-20 0l16 66h156q53 0 69 55l330 1216q18 55 -39 56h-156l19 65h678l-17 -65h-229q-33 0 -47.5 -12.5t-22.5 -43.5l-41 -153h303q150 8 245 -80t95 -244q0 -90 -43 -174t-119.5 -147.5t-192.5 -102.5t-251 -39h-250l-75 -276q-15 -55 38 -55h230l-17 -66h-679zM502 463 h274q80 0 156 39t121 102q90 126 90 293q0 111 -54.5 166t-134.5 55h-221q-55 0 -69 -55z" />
<glyph unicode="&#xdf;" horiz-adv-x="983" d="M-70 -420l404 1495q58 209 198 309q127 91 250 91q195 0 242 -144q12 -37 12 -80q0 -92 -53 -172t-135 -129t-170 -61l-2 -8q76 -10 144.5 -109.5t68.5 -251.5q0 -88 -37 -196.5t-102 -192.5q-123 -156 -304 -156q-72 0 -118.5 46.5t-46.5 113.5q0 50 19 88.5t48 55 t66 16.5t56 -22.5t19 -53.5t-17 -50t-64 -34q-37 -10 -37 -43q0 -67 84 -67t149.5 79.5t101 200.5t35.5 248q0 303 -151 303h-78l16 57h78q86 0 157 51.5t106.5 126t35.5 159.5t-32.5 130t-106.5 45q-67 0 -125 -43q-103 -77 -154 -249l-421 -1553h-136z" />
<glyph unicode="&#xe0;" horiz-adv-x="1097" d="M86 255q0 126 37 242.5t96.5 209t154.5 160t176 67.5q161 0 206 -180l8 -4l45 159h135l-174 -645q-29 -115 -29 -167t37 -52q57 0 116.5 91t106.5 237l41 -13q-48 -146 -102.5 -230.5t-101.5 -119.5t-97 -35q-119 0 -118 209l2 56l-7 4q-29 -70 -90 -140 q-111 -129 -216.5 -129t-165.5 77t-60 203zM233 199q0 -174 95 -174q74 0 145.5 75.5t120.5 187.5q111 255 111 408q0 90 -37 139.5t-101 49.5q-87 0 -179 -153q-79 -133 -117 -291t-38 -242zM471 1303q0 81 74 81q33 0 50.5 -18t31.5 -61l82 -244l-35 -21l-174 199 q-29 31 -29 64z" />
<glyph unicode="&#xe1;" horiz-adv-x="1097" d="M86 255q0 126 37 242.5t96.5 209t154.5 160t176 67.5q161 0 206 -180l8 -4l45 159h135l-174 -645q-29 -115 -29 -167t37 -52q57 0 116.5 91t106.5 237l41 -13q-48 -146 -102.5 -230.5t-101.5 -119.5t-97 -35q-119 0 -118 209l2 56l-7 4q-29 -70 -90 -140 q-111 -129 -216.5 -129t-165.5 77t-60 203zM233 199q0 -174 95 -174q74 0 145.5 75.5t120.5 187.5q111 255 111 408q0 90 -37 139.5t-101 49.5q-87 0 -179 -153q-79 -133 -117 -291t-38 -242zM631 1065l217 252q47 55 98 55q58 0 58 -59q0 -51 -66 -94l-282 -179z" />
<glyph unicode="&#xe2;" horiz-adv-x="1097" d="M86 255q0 126 37 242.5t96.5 209t154.5 160t176 67.5q161 0 206 -180l8 -4l45 159h135l-174 -645q-29 -115 -29 -167t37 -52q57 0 116.5 91t106.5 237l41 -13q-48 -146 -102.5 -230.5t-101.5 -119.5t-97 -35q-119 0 -118 209l2 56l-7 4q-29 -70 -90 -140 q-111 -129 -216.5 -129t-165.5 77t-60 203zM233 199q0 -174 95 -174q74 0 145.5 75.5t120.5 187.5q111 255 111 408q0 90 -37 139.5t-101 49.5q-87 0 -179 -153q-79 -133 -117 -291t-38 -242zM398 1067q182 96 311 309h82q18 -213 143 -309l-24 -27q-123 74 -199 189 q-145 -117 -301 -189z" />
<glyph unicode="&#xe3;" horiz-adv-x="1097" d="M86 255q0 126 37 242.5t96.5 209t154.5 160t176 67.5q161 0 206 -180l8 -4l45 159h135l-174 -645q-29 -115 -29 -167t37 -52q57 0 116.5 91t106.5 237l41 -13q-48 -146 -102.5 -230.5t-101.5 -119.5t-97 -35q-119 0 -118 209l2 56l-7 4q-29 -70 -90 -140 q-111 -129 -216.5 -129t-165.5 77t-60 203zM233 199q0 -174 95 -174q74 0 145.5 75.5t120.5 187.5q111 255 111 408q0 90 -37 139.5t-101 49.5q-87 0 -179 -153q-79 -133 -117 -291t-38 -242zM439 1139q0 80 43 136t108 56t114.5 -20.5t94.5 -41t83 -20.5t53.5 20.5 t23.5 61.5h45q0 -80 -43 -136t-108.5 -56t-115 20.5t-94.5 41t-83 20.5t-53 -20.5t-23 -61.5h-45z" />
<glyph unicode="&#xe4;" horiz-adv-x="1097" d="M86 255q0 126 37 242.5t96.5 209t154.5 160t176 67.5q161 0 206 -180l8 -4l45 159h135l-174 -645q-29 -115 -29 -167t37 -52q57 0 116.5 91t106.5 237l41 -13q-48 -146 -102.5 -230.5t-101.5 -119.5t-97 -35q-119 0 -118 209l2 56l-7 4q-29 -70 -90 -140 q-111 -129 -216.5 -129t-165.5 77t-60 203zM233 199q0 -174 95 -174q74 0 145.5 75.5t120.5 187.5q111 255 111 408q0 90 -37 139.5t-101 49.5q-87 0 -179 -153q-79 -133 -117 -291t-38 -242zM414 1221q0 45 30.5 75.5t75.5 30.5t76 -30.5t31 -75.5t-31 -76t-76 -31 t-75.5 31t-30.5 76zM799 1221q0 45 30.5 75.5t76 30.5t76 -30.5t30.5 -75.5t-30.5 -76t-76 -31t-76 31t-30.5 76z" />
<glyph unicode="&#xe5;" horiz-adv-x="1097" d="M86 255q0 126 37 242.5t96.5 209t154.5 160t176 67.5q161 0 206 -180l8 -4l45 159h135l-174 -645q-29 -115 -29 -167t37 -52q57 0 116.5 91t106.5 237l41 -13q-48 -146 -102.5 -230.5t-101.5 -119.5t-97 -35q-119 0 -118 209l2 56l-7 4q-29 -70 -90 -140 q-111 -129 -216.5 -129t-165.5 77t-60 203zM233 199q0 -174 95 -174q74 0 145.5 75.5t120.5 187.5q111 255 111 408q0 90 -37 139.5t-101 49.5q-87 0 -179 -153q-79 -133 -117 -291t-38 -242zM512 1225q0 82 57.5 139t141.5 57t141.5 -57t57.5 -139t-57.5 -141.5 t-141.5 -59.5t-141.5 59.5t-57.5 141.5zM561 1224.5q0 -65.5 43 -108.5t106.5 -43t106.5 43t43 108.5t-43 106.5t-106.5 41t-106.5 -41t-43 -106.5z" />
<glyph unicode="&#xe6;" horiz-adv-x="1400" d="M86 255q0 126 37 242.5t96.5 209t154.5 160t176 67.5q161 0 206 -180l8 -4l45 159h135l-45 -159l14 4q127 180 265 180q74 0 119.5 -45t45.5 -126t-55 -147q-127 -150 -465 -176q-47 -137 -47 -233q0 -182 160 -182q136 0 253 171q50 74 66 121l43 -14 q-47 -135 -154.5 -231.5t-217.5 -96.5q-196 0 -264 138q-28 56 -37 127l-7 4q-29 -70 -90 -140q-111 -129 -216.5 -129t-165.5 77t-60 203zM233 199q0 -174 95 -174q74 0 145.5 75.5t120.5 187.5q111 255 111 408q0 90 -37 139.5t-101 49.5q-87 0 -179 -153 q-79 -133 -117 -291t-38 -242zM836 492q178 12 252.5 46t115.5 96t41 142q0 109 -90 109q-140 0 -262 -250q-26 -50 -57 -143z" />
<glyph unicode="&#xe7;" horiz-adv-x="868" d="M84 -315q0 49 24.5 82.5t61.5 33.5q57 0 57 -63q0 -20 -15 -36.5t-28 -16.5q-24 0 -24 -23q0 -51 80 -51q55 0 83.5 33.5t28.5 76.5t-24 97.5t-24.5 83t22.5 80.5q-100 23 -160 119t-60 221t45.5 245.5t126.5 204.5t153.5 123t136 39t96 -10.5t61.5 -33.5q66 -51 66 -161 q0 -61 -35 -102t-78 -41t-63.5 24.5t-20.5 53.5q0 57 65 106q23 18 23 45.5t-22.5 48.5t-73.5 21q-160 0 -279 -357q-23 -66 -38 -168t-15 -175.5t41 -116.5t96 -43t108.5 26.5t86 62.5t62.5 82q36 56 63 121l43 -14q-49 -139 -149.5 -233.5t-223.5 -94.5h-4l-12 -18 q-27 -47 31 -104t58.5 -121t-63 -115t-139 -51t-122 35t-46.5 84z" />
<glyph unicode="&#xe8;" horiz-adv-x="839" d="M106 313q0 282 181 467q147 154 307 154q82 0 134 -41t52 -131q0 -160 -207 -256q-106 -51 -290 -66q-29 -115 -29 -222t41 -150t96 -43t108.5 26.5t86 62.5t62.5 82q36 56 63 121l43 -14q-49 -139 -149.5 -233.5t-223.5 -94.5t-199 102t-76 236zM295 492q150 10 227 45 q160 73 160 237q0 57 -23.5 84t-62.5 27q-84 0 -155.5 -76t-100.5 -156.5t-45 -160.5zM450 1303q0 81 74 81q33 0 50.5 -18t31.5 -61l82 -244l-35 -21l-174 199q-29 31 -29 64z" />
<glyph unicode="&#xe9;" horiz-adv-x="839" d="M106 313q0 282 181 467q147 154 307 154q82 0 134 -41t52 -131q0 -160 -207 -256q-106 -51 -290 -66q-29 -115 -29 -222t41 -150t96 -43t108.5 26.5t86 62.5t62.5 82q36 56 63 121l43 -14q-49 -139 -149.5 -233.5t-223.5 -94.5t-199 102t-76 236zM295 492q150 10 227 45 q160 73 160 237q0 57 -23.5 84t-62.5 27q-84 0 -155.5 -76t-100.5 -156.5t-45 -160.5zM610 1065l217 252q47 55 98 55q58 0 58 -59q0 -51 -66 -94l-282 -179z" />
<glyph unicode="&#xea;" horiz-adv-x="839" d="M106 313q0 282 181 467q147 154 307 154q82 0 134 -41t52 -131q0 -160 -207 -256q-106 -51 -290 -66q-29 -115 -29 -222t41 -150t96 -43t108.5 26.5t86 62.5t62.5 82q36 56 63 121l43 -14q-49 -139 -149.5 -233.5t-223.5 -94.5t-199 102t-76 236zM295 492q150 10 227 45 q160 73 160 237q0 57 -23.5 84t-62.5 27q-84 0 -155.5 -76t-100.5 -156.5t-45 -160.5zM377 1067q182 96 311 309h82q18 -213 143 -309l-24 -27q-123 74 -199 189q-145 -117 -301 -189z" />
<glyph unicode="&#xeb;" horiz-adv-x="839" d="M106 313q0 282 181 467q147 154 307 154q82 0 134 -41t52 -131q0 -160 -207 -256q-106 -51 -290 -66q-29 -115 -29 -222t41 -150t96 -43t108.5 26.5t86 62.5t62.5 82q36 56 63 121l43 -14q-49 -139 -149.5 -233.5t-223.5 -94.5t-199 102t-76 236zM295 492q150 10 227 45 q160 73 160 237q0 57 -23.5 84t-62.5 27q-84 0 -155.5 -76t-100.5 -156.5t-45 -160.5zM393 1221q0 45 30.5 75.5t75.5 30.5t76 -30.5t31 -75.5t-31 -76t-76 -31t-75.5 31t-30.5 76zM778 1221q0 45 30.5 75.5t76 30.5t76 -30.5t30.5 -75.5t-30.5 -76t-76 -31t-76 31t-30.5 76 z" />
<glyph unicode="&#xec;" horiz-adv-x="684" d="M74 549q57 164 136 274.5t171 110.5q53 0 91 -51.5t38 -120.5q0 -126 -41 -234l-131 -305q-33 -72 -33 -129t47 -57q117 0 242 336l41 -13q-82 -230 -181 -326q-61 -59 -120 -59t-97 49.5t-38 147.5q0 110 41 209l131 305q33 72 32.5 129.5t-45.5 56.5q-120 0 -243 -335z M270 1303q0 81 74 81q33 0 50.5 -18t31.5 -61l82 -244l-35 -21l-174 199q-29 31 -29 64z" />
<glyph unicode="&#xed;" horiz-adv-x="684" d="M74 549q57 164 136 274.5t171 110.5q53 0 91 -51.5t38 -120.5q0 -126 -41 -234l-131 -305q-33 -72 -33 -129t47 -57q117 0 242 336l41 -13q-82 -230 -181 -326q-61 -59 -120 -59t-97 49.5t-38 147.5q0 110 41 209l131 305q33 72 32.5 129.5t-45.5 56.5q-120 0 -243 -335z M430 1065l217 252q47 55 98 55q58 0 58 -59q0 -51 -66 -94l-282 -179z" />
<glyph unicode="&#xee;" horiz-adv-x="684" d="M74 549q57 164 136 274.5t171 110.5q53 0 91 -51.5t38 -120.5q0 -126 -41 -234l-131 -305q-33 -72 -33 -129t47 -57q117 0 242 336l41 -13q-82 -230 -181 -326q-61 -59 -120 -59t-97 49.5t-38 147.5q0 110 41 209l131 305q33 72 32.5 129.5t-45.5 56.5q-120 0 -243 -335z M197 1067q182 96 311 309h82q18 -213 143 -309l-24 -27q-123 74 -199 189q-145 -117 -301 -189z" />
<glyph unicode="&#xef;" horiz-adv-x="684" d="M74 549q57 164 136 274.5t171 110.5q53 0 91 -51.5t38 -120.5q0 -126 -41 -234l-131 -305q-33 -72 -33 -129t47 -57q117 0 242 336l41 -13q-82 -230 -181 -326q-61 -59 -120 -59t-97 49.5t-38 147.5q0 110 41 209l131 305q33 72 32.5 129.5t-45.5 56.5q-120 0 -243 -335z M238 1221q0 45 30.5 75.5t75.5 30.5t76 -30.5t31 -75.5t-31 -76t-76 -31t-75.5 31t-30.5 76zM573 1221q0 45 31 75.5t76 30.5t75.5 -30.5t30.5 -75.5t-30.5 -76t-75.5 -31t-76 31t-31 76z" />
<glyph unicode="&#xf0;" horiz-adv-x="1011" d="M106 336q0 106 41 214.5t106.5 192.5t159 137.5t187.5 53.5t160 -66l18 9q0 126 -61 268l-254 -94l-21 55l248 90q-49 106 -147 242h182q66 -94 104 -191l248 90l21 -55l-246 -90l14 -37q27 -70 43.5 -170t16.5 -189t-29 -215q-75 -327 -261 -497q-120 -109 -242 -109 t-205 94.5t-83 266.5zM254 219q0 -90 35 -142t90 -52t92 20.5t67 58.5q45 60 89.5 160t71 218t26.5 208t-33 142.5t-88 52.5t-93 -20.5t-67 -58.5q-43 -55 -90 -158t-73.5 -221t-26.5 -208z" />
<glyph unicode="&#xf1;" horiz-adv-x="1171" d="M74 549q135 385 301 385q119 0 119 -209q0 -41 -19.5 -126t-34.5 -122l6 -6q8 12 35 64.5t45.5 85t51 85t63.5 87t67 70.5q72 71 145 71q144 0 144 -197q0 -45 -13 -108.5t-28 -100.5l-131 -305q-33 -72 -32.5 -129t47.5 -57q97 0 202 237q21 48 39 99l41 -13 q-82 -230 -181 -326q-60 -59 -119.5 -59t-97.5 49.5t-38 147.5q0 104 41 209l131 305q33 72 33 129.5t-45 56.5q-125 0 -260 -231q-166 -277 -238 -506l-41 -135h-135l172 635q31 123 31 176t-40 53t-83 -51q-77 -91 -137 -276zM496 1139q0 80 43 136t108 56t114.5 -20.5 t94.5 -41t83 -20.5t53.5 20.5t23.5 61.5h45q0 -80 -43 -136t-108.5 -56t-115 20.5t-94.5 41t-83 20.5t-53 -20.5t-23 -61.5h-45z" />
<glyph unicode="&#xf2;" horiz-adv-x="946" d="M106 336q0 106 41 214.5t106.5 192.5t159 137.5t189.5 53.5q106 0 184 -88q86 -95 86 -273q0 -106 -39.5 -214.5t-105 -192.5t-158 -137.5t-195 -53.5t-185.5 94.5t-83 266.5zM254 219q0 -90 35 -142t90 -52t92 20.5t67 58.5q45 60 89.5 160t71 218t26.5 208t-33 142.5 t-88 52.5t-93 -20.5t-67 -58.5q-43 -55 -90 -158t-73.5 -221t-26.5 -208zM454 1303q0 81 74 81q33 0 50.5 -18t31.5 -61l82 -244l-35 -21l-174 199q-29 31 -29 64z" />
<glyph unicode="&#xf3;" horiz-adv-x="946" d="M106 336q0 106 41 214.5t106.5 192.5t159 137.5t189.5 53.5q106 0 184 -88q86 -95 86 -273q0 -106 -39.5 -214.5t-105 -192.5t-158 -137.5t-195 -53.5t-185.5 94.5t-83 266.5zM254 219q0 -90 35 -142t90 -52t92 20.5t67 58.5q45 60 89.5 160t71 218t26.5 208t-33 142.5 t-88 52.5t-93 -20.5t-67 -58.5q-43 -55 -90 -158t-73.5 -221t-26.5 -208zM614 1065l217 252q47 55 98 55q58 0 58 -59q0 -51 -66 -94l-282 -179z" />
<glyph unicode="&#xf4;" horiz-adv-x="946" d="M106 336q0 106 41 214.5t106.5 192.5t159 137.5t189.5 53.5q106 0 184 -88q86 -95 86 -273q0 -106 -39.5 -214.5t-105 -192.5t-158 -137.5t-195 -53.5t-185.5 94.5t-83 266.5zM254 219q0 -90 35 -142t90 -52t92 20.5t67 58.5q45 60 89.5 160t71 218t26.5 208t-33 142.5 t-88 52.5t-93 -20.5t-67 -58.5q-43 -55 -90 -158t-73.5 -221t-26.5 -208zM381 1067q182 96 311 309h82q18 -213 143 -309l-24 -27q-123 74 -199 189q-145 -117 -301 -189z" />
<glyph unicode="&#xf5;" horiz-adv-x="946" d="M106 336q0 106 41 214.5t106.5 192.5t159 137.5t189.5 53.5q106 0 184 -88q86 -95 86 -273q0 -106 -39.5 -214.5t-105 -192.5t-158 -137.5t-195 -53.5t-185.5 94.5t-83 266.5zM254 219q0 -90 35 -142t90 -52t92 20.5t67 58.5q45 60 89.5 160t71 218t26.5 208t-33 142.5 t-88 52.5t-93 -20.5t-67 -58.5q-43 -55 -90 -158t-73.5 -221t-26.5 -208zM422 1139q0 80 43 136t108 56t114.5 -20.5t94.5 -41t83 -20.5t53.5 20.5t23.5 61.5h45q0 -80 -43 -136t-108.5 -56t-115 20.5t-94.5 41t-83 20.5t-53 -20.5t-23 -61.5h-45z" />
<glyph unicode="&#xf6;" horiz-adv-x="946" d="M106 336q0 106 41 214.5t106.5 192.5t159 137.5t189.5 53.5q106 0 184 -88q86 -95 86 -273q0 -106 -39.5 -214.5t-105 -192.5t-158 -137.5t-195 -53.5t-185.5 94.5t-83 266.5zM254 219q0 -90 35 -142t90 -52t92 20.5t67 58.5q45 60 89.5 160t71 218t26.5 208t-33 142.5 t-88 52.5t-93 -20.5t-67 -58.5q-43 -55 -90 -158t-73.5 -221t-26.5 -208zM397 1221q0 45 30.5 75.5t75.5 30.5t76 -30.5t31 -75.5t-31 -76t-76 -31t-75.5 31t-30.5 76zM782 1221q0 45 30.5 75.5t76 30.5t76 -30.5t30.5 -75.5t-30.5 -76t-76 -31t-76 31t-30.5 76z" />
<glyph unicode="&#xf7;" horiz-adv-x="1925" d="M115 500v82h1728v-82h-1728zM852 12.5q0 55.5 36 91t91 35.5t91 -35.5t36 -91t-36 -91.5t-91 -36t-91 36t-36 91.5zM852 1061q0 55 36 91t91 36t91 -36t36 -91t-36 -91t-91 -36t-91 36t-36 91z" />
<glyph unicode="&#xf8;" horiz-adv-x="946" d="M49 8l105 115q-47 90 -47.5 204.5t40.5 223t106.5 192.5t159 137.5t189.5 53.5q123 0 201 -109l98 109l37 -37l-109 -117q43 -88 43 -200.5t-39.5 -221t-105 -192.5t-158 -137.5t-201 -53.5t-186.5 105l-96 -105zM254 231l469 508q-17 146 -129 146q-89 0 -150 -79 q-43 -55 -94 -163q-87 -211 -96 -412zM258 162q8 -63 43 -100t84 -37t86 20.5t67 58.5q45 60 91 162q86 201 96 400z" />
<glyph unicode="&#xf9;" horiz-adv-x="1171" d="M74 549q82 230 181 327q60 58 119.5 58t97.5 -49t38 -148q0 -104 -41 -209l-131 -305q-33 -72 -33 -129.5t45 -56.5q125 0 260 231q166 277 238 506l41 135h135l-172 -635q-31 -123 -31 -176t40 -53t83 51q76 90 137 277l41 -13q-135 -385 -301 -385q-119 0 -119 209 q0 41 19.5 126t34.5 122l-6 6q-8 -12 -35 -64t-45.5 -85t-51 -85t-63.5 -87t-67 -71q-72 -71 -145 -71q-144 0 -144 197q0 45 13 108.5t28 100.5l131 305q33 72 32.5 129t-47.5 57q-96 0 -202 -236q-21 -48 -39 -99zM524 1303q0 81 74 81q33 0 50.5 -18t31.5 -61l82 -244 l-35 -21l-174 199q-29 31 -29 64z" />
<glyph unicode="&#xfa;" horiz-adv-x="1171" d="M74 549q82 230 181 327q60 58 119.5 58t97.5 -49t38 -148q0 -104 -41 -209l-131 -305q-33 -72 -33 -129.5t45 -56.5q125 0 260 231q166 277 238 506l41 135h135l-172 -635q-31 -123 -31 -176t40 -53t83 51q76 90 137 277l41 -13q-135 -385 -301 -385q-119 0 -119 209 q0 41 19.5 126t34.5 122l-6 6q-8 -12 -35 -64t-45.5 -85t-51 -85t-63.5 -87t-67 -71q-72 -71 -145 -71q-144 0 -144 197q0 45 13 108.5t28 100.5l131 305q33 72 32.5 129t-47.5 57q-96 0 -202 -236q-21 -48 -39 -99zM684 1065l217 252q47 55 98 55q58 0 58 -59 q0 -51 -66 -94l-282 -179z" />
<glyph unicode="&#xfb;" horiz-adv-x="1171" d="M74 549q82 230 181 327q60 58 119.5 58t97.5 -49t38 -148q0 -104 -41 -209l-131 -305q-33 -72 -33 -129.5t45 -56.5q125 0 260 231q166 277 238 506l41 135h135l-172 -635q-31 -123 -31 -176t40 -53t83 51q76 90 137 277l41 -13q-135 -385 -301 -385q-119 0 -119 209 q0 41 19.5 126t34.5 122l-6 6q-8 -12 -35 -64t-45.5 -85t-51 -85t-63.5 -87t-67 -71q-72 -71 -145 -71q-144 0 -144 197q0 45 13 108.5t28 100.5l131 305q33 72 32.5 129t-47.5 57q-96 0 -202 -236q-21 -48 -39 -99zM451 1067q182 96 311 309h82q18 -213 143 -309l-24 -27 q-123 74 -199 189q-145 -117 -301 -189z" />
<glyph unicode="&#xfc;" horiz-adv-x="1171" d="M74 549q82 230 181 327q60 58 119.5 58t97.5 -49t38 -148q0 -104 -41 -209l-131 -305q-33 -72 -33 -129.5t45 -56.5q125 0 260 231q166 277 238 506l41 135h135l-172 -635q-31 -123 -31 -176t40 -53t83 51q76 90 137 277l41 -13q-135 -385 -301 -385q-119 0 -119 209 q0 41 19.5 126t34.5 122l-6 6q-8 -12 -35 -64t-45.5 -85t-51 -85t-63.5 -87t-67 -71q-72 -71 -145 -71q-144 0 -144 197q0 45 13 108.5t28 100.5l131 305q33 72 32.5 129t-47.5 57q-96 0 -202 -236q-21 -48 -39 -99zM467 1221q0 45 30.5 75.5t75.5 30.5t76 -30.5t31 -75.5 t-31 -76t-76 -31t-75.5 31t-30.5 76zM852 1221q0 45 30.5 75.5t76 30.5t76 -30.5t30.5 -75.5t-30.5 -76t-76 -31t-76 31t-30.5 76z" />
<glyph unicode="&#xfd;" horiz-adv-x="1048" d="M49 -307q0 57 33 90t76 33t63.5 -24.5t20.5 -66.5t-39 -73q-18 -16 -19 -45q0 -66 80 -66t131 23.5t115 102.5t123 300l88 330l-12 4q-66 -133 -164.5 -229.5t-177.5 -96.5t-123.5 51.5t-44.5 145.5q0 45 13 108.5t28 100.5l131 305q33 72 32.5 129t-47.5 57 q-96 0 -202 -236q-21 -48 -39 -99l-41 12q82 230 181 327q60 58 119.5 58t97.5 -49t38 -148q0 -104 -41 -209l-131 -305q-33 -72 -33 -121q0 -78 72 -77q57 0 126.5 64.5t130.5 161.5q133 209 189 413l68 245h135l-242 -909q-23 -88 -76 -195.5t-122 -180.5 q-125 -132 -291 -132q-111 0 -178.5 53.5t-67.5 147.5zM676 1065l217 252q47 55 98 55q58 0 58 -59q0 -51 -66 -94l-282 -179z" />
<glyph unicode="&#xfe;" horiz-adv-x="1105" d="M-154 -475l17 57h151q25 0 37 10.5t19 34.5l469 1737q11 45 -33 45h-180l14 49h362l-215 -788l9 -4q27 67 112 166q39 45 90.5 73.5t100.5 28.5q109 0 169 -77t60 -203t-37 -242.5t-96.5 -209t-154.5 -160t-176 -67.5q-161 0 -206 181l-8 4l-141 -533q-6 -25 0 -35 t31 -10h249l-16 -57h-627zM410 204q0 -81 36.5 -130t100.5 -49q89 0 179 152q78 130 116.5 290t38.5 243q0 175 -95 175q-74 0 -145.5 -76t-120.5 -188.5t-79.5 -224t-30.5 -192.5z" />
<glyph unicode="&#xff;" horiz-adv-x="1048" d="M49 -307q0 57 33 90t76 33t63.5 -24.5t20.5 -66.5t-39 -73q-18 -16 -19 -45q0 -66 80 -66t131 23.5t115 102.5t123 300l88 330l-12 4q-66 -133 -164.5 -229.5t-177.5 -96.5t-123.5 51.5t-44.5 145.5q0 45 13 108.5t28 100.5l131 305q33 72 32.5 129t-47.5 57 q-96 0 -202 -236q-21 -48 -39 -99l-41 12q82 230 181 327q60 58 119.5 58t97.5 -49t38 -148q0 -104 -41 -209l-131 -305q-33 -72 -33 -121q0 -78 72 -77q57 0 126.5 64.5t130.5 161.5q133 209 189 413l68 245h135l-242 -909q-23 -88 -76 -195.5t-122 -180.5 q-125 -132 -291 -132q-111 0 -178.5 53.5t-67.5 147.5zM459 1221q0 45 30.5 75.5t75.5 30.5t76 -30.5t31 -75.5t-31 -76t-76 -31t-75.5 31t-30.5 76zM844 1221q0 45 30.5 75.5t76 30.5t76 -30.5t30.5 -75.5t-30.5 -76t-76 -31t-76 31t-30.5 76z" />
<glyph unicode="&#x2c6;" horiz-adv-x="901" d="M365 1067q182 96 311 309h82q18 -213 143 -309l-24 -27q-123 74 -199 189q-145 -117 -301 -189z" />
<glyph unicode="&#x2dc;" horiz-adv-x="901" d="M406 1139q0 80 43 136t108 56t114.5 -20.5t94.5 -41t83 -20.5t53.5 20.5t23.5 61.5h45q0 -80 -43 -136t-108.5 -56t-115 20.5t-94.5 41t-83 20.5t-53 -20.5t-23 -61.5h-45z" />
<glyph unicode="&#x2000;" horiz-adv-x="971" />
<glyph unicode="&#x2001;" horiz-adv-x="1942" />
<glyph unicode="&#x2002;" horiz-adv-x="971" />
<glyph unicode="&#x2003;" horiz-adv-x="1942" />
<glyph unicode="&#x2004;" horiz-adv-x="647" />
<glyph unicode="&#x2005;" horiz-adv-x="485" />
<glyph unicode="&#x2006;" horiz-adv-x="323" />
<glyph unicode="&#x2007;" horiz-adv-x="323" />
<glyph unicode="&#x2008;" horiz-adv-x="242" />
<glyph unicode="&#x2009;" horiz-adv-x="388" />
<glyph unicode="&#x200a;" horiz-adv-x="107" />
<glyph unicode="&#x2010;" horiz-adv-x="757" d="M115 401q0 72 36.5 122t102.5 50h360q31 0 44.5 13.5t13.5 44.5h37q0 -72 -37 -122t-103 -50h-360q-31 0 -44 -13.5t-13 -44.5h-37z" />
<glyph unicode="&#x2011;" horiz-adv-x="757" d="M115 401q0 72 36.5 122t102.5 50h360q31 0 44.5 13.5t13.5 44.5h37q0 -72 -37 -122t-103 -50h-360q-31 0 -44 -13.5t-13 -44.5h-37z" />
<glyph unicode="&#x2012;" horiz-adv-x="757" d="M115 401q0 72 36.5 122t102.5 50h360q31 0 44.5 13.5t13.5 44.5h37q0 -72 -37 -122t-103 -50h-360q-31 0 -44 -13.5t-13 -44.5h-37z" />
<glyph unicode="&#x2013;" horiz-adv-x="1269" d="M172 500v73h1024v-73h-1024z" />
<glyph unicode="&#x2014;" horiz-adv-x="2048" d="M188 479v74h1803v-74h-1803z" />
<glyph unicode="&#x2018;" horiz-adv-x="573" d="M303 1042.5q0 71.5 24.5 145.5t60.5 123t83 90q76 66 152 94l16 -33q-85 -44 -145 -98q-107 -98 -107 -203q0 -61 78 -61q43 0 69.5 -32t26.5 -83t-34.5 -86t-94 -35t-94.5 53.5t-35 125z" />
<glyph unicode="&#x2019;" horiz-adv-x="573" d="M295 897q85 44 145 98q107 98 107 203q0 31 -17 46t-60.5 15t-70 32t-26.5 83t35 86t94 35t94 -53.5t35 -125t-24.5 -145.5t-60.5 -123t-83 -90q-76 -66 -152 -94z" />
<glyph unicode="&#x201a;" horiz-adv-x="573" d="M45 -311q85 44 145 98q107 98 107 203q0 31 -17 46t-60.5 15t-70 32t-26.5 83t35 86t94 35t94 -53.5t35 -125t-24.5 -145.5t-60.5 -123t-83 -90q-76 -66 -152 -94z" />
<glyph unicode="&#x201c;" horiz-adv-x="901" d="M303 1042.5q0 71.5 24.5 145.5t60.5 123t83 90q76 66 152 94l16 -33q-85 -44 -145 -98q-107 -98 -107 -203q0 -61 78 -61q43 0 69.5 -32t26.5 -83t-34.5 -86t-94 -35t-94.5 53.5t-35 125zM631 1042.5q0 71.5 24.5 145.5t60.5 123t83 90q76 66 152 94l16 -33 q-85 -44 -145 -98q-107 -98 -107 -203q0 -61 78 -61q43 0 69.5 -32t26.5 -83t-34.5 -86t-94 -35t-94.5 53.5t-35 125z" />
<glyph unicode="&#x201d;" horiz-adv-x="901" d="M295 897q85 44 145 98q107 98 107 203q0 31 -17 46t-60.5 15t-70 32t-26.5 83t35 86t94 35t94 -53.5t35 -125t-24.5 -145.5t-60.5 -123t-83 -90q-76 -66 -152 -94zM623 897q85 44 145 98q107 98 107 203q0 31 -17 46t-60.5 15t-70 32t-26.5 83t35 86t94 35t94 -53.5 t35 -125t-24.5 -145.5t-60.5 -123t-83 -90q-76 -66 -152 -94z" />
<glyph unicode="&#x201e;" horiz-adv-x="901" d="M45 -311q85 44 145 98q107 98 107 203q0 31 -17 46t-60.5 15t-70 32t-26.5 83t35 86t94 35t94 -53.5t35 -125t-24.5 -145.5t-60.5 -123t-83 -90q-76 -66 -152 -94zM356 -311q85 44 145 98q107 98 107 203q0 31 -17 46t-60.5 15t-70 32t-26.5 83t35 86t94 35t94 -53.5 t35 -125t-24.5 -145.5t-60.5 -123t-83 -90q-76 -66 -152 -94z" />
<glyph unicode="&#x2022;" horiz-adv-x="1024" d="M360 725q0 98 68 165.5t166 67.5t165.5 -67.5t67.5 -165.5t-67.5 -165.5t-165.5 -67.5t-166 67.5t-68 165.5z" />
<glyph unicode="&#x202f;" horiz-adv-x="388" />
<glyph unicode="&#x2039;" horiz-adv-x="675" d="M111 467q104 73 311 263q24 22 92 83t90 84l23 -20l-332 -410l111 -410l-35 -20q-12 23 -46 83t-45.5 82.5t-38 68.5t-43.5 72q-54 85 -87 124z" />
<glyph unicode="&#x203a;" horiz-adv-x="675" d="M66 57l331 410l-110 410l35 20q170 -325 260 -430q-108 -76 -312 -263q-24 -22 -91.5 -83.5t-90.5 -83.5z" />
<glyph unicode="&#x205f;" horiz-adv-x="485" />
<glyph unicode="&#xe000;" horiz-adv-x="931" d="M0 0v932h932v-932h-932z" />
</font>
</defs>
</svg>
